<?xml version="1.0" encoding="UTF-8" standalone="no"?>
<svg
   xmlns:dc="http://purl.org/dc/elements/1.1/"
   xmlns:cc="http://creativecommons.org/ns#"
   xmlns:rdf="http://www.w3.org/1999/02/22-rdf-syntax-ns#"
   xmlns:svg="http://www.w3.org/2000/svg"
   xmlns="http://www.w3.org/2000/svg"
   xmlns:sodipodi="http://sodipodi.sourceforge.net/DTD/sodipodi-0.dtd"
   xmlns:inkscape="http://www.inkscape.org/namespaces/inkscape"
   width="634.02234mm"
   height="139.13141mm"
   viewBox="0 0 634.02234 139.13141"
   version="1.1"
   id="svg8"
   inkscape:version="1.0.1 (3bc2e813f5, 2020-09-07)"
   sodipodi:docname="h10.svg">
  <defs
     id="defs2">
    <inkscape:path-effect
       effect="spiro"
       id="path-effect3235"
       is_visible="true"
       lpeversion="1" />
    <inkscape:path-effect
       effect="spiro"
       id="path-effect3216"
       is_visible="true"
       lpeversion="1" />
    <inkscape:perspective
       sodipodi:type="inkscape:persp3d"
       inkscape:vp_x="0 : -213.35232 : 1"
       inkscape:vp_y="0 : 999.99994 : 0"
       inkscape:vp_z="300.7675 : -213.35232 : 1"
       inkscape:persp3d-origin="150.38375 : -246.80078 : 1"
       id="perspective1114" />
    <marker
       style="overflow:visible"
       id="marker1284"
       refX="0"
       refY="0"
       orient="auto"
       inkscape:stockid="Arrow1Mend"
       inkscape:isstock="true">
      <path
         transform="matrix(-0.4,0,0,-0.4,-4,0)"
         style="fill:#000000;fill-opacity:1;fill-rule:evenodd;stroke:#000000;stroke-width:1pt;stroke-opacity:1"
         d="M 0,0 5,-5 -12.5,0 5,5 Z"
         id="path1282" />
    </marker>
    <marker
       style="overflow:visible"
       id="EmptyTriangleOutL"
       refX="0"
       refY="0"
       orient="auto"
       inkscape:stockid="EmptyTriangleOutL"
       inkscape:isstock="true">
      <path
         transform="matrix(0.8,0,0,0.8,-4.8,0)"
         style="fill:#ffffff;fill-rule:evenodd;stroke:#000000;stroke-width:1pt;stroke-opacity:1"
         d="M 5.77,0 -2.88,5 V -5 Z"
         id="path1072" />
    </marker>
    <marker
       style="overflow:visible"
       id="Arrow1Mend"
       refX="0"
       refY="0"
       orient="auto"
       inkscape:stockid="Arrow1Mend"
       inkscape:isstock="true">
      <path
         transform="matrix(-0.4,0,0,-0.4,-4,0)"
         style="fill:#000000;fill-opacity:1;fill-rule:evenodd;stroke:#000000;stroke-width:1pt;stroke-opacity:1"
         d="M 0,0 5,-5 -12.5,0 5,5 Z"
         id="path921" />
    </marker>
    <marker
       style="overflow:visible"
       id="Arrow1Lend"
       refX="0"
       refY="0"
       orient="auto"
       inkscape:stockid="Arrow1Lend"
       inkscape:isstock="true">
      <path
         transform="matrix(-0.8,0,0,-0.8,-10,0)"
         style="fill:#000000;fill-opacity:1;fill-rule:evenodd;stroke:#000000;stroke-width:1pt;stroke-opacity:1"
         d="M 0,0 5,-5 -12.5,0 5,5 Z"
         id="path915" />
    </marker>
    <marker
       style="overflow:visible"
       id="marker1284-6"
       refX="0"
       refY="0"
       orient="auto"
       inkscape:stockid="Arrow1Mend"
       inkscape:isstock="true">
      <path
         transform="matrix(-0.4,0,0,-0.4,-4,0)"
         style="fill:#000000;fill-opacity:1;fill-rule:evenodd;stroke:#000000;stroke-width:1pt;stroke-opacity:1"
         d="M 0,0 5,-5 -12.5,0 5,5 Z"
         id="path1282-2" />
    </marker>
    <marker
       style="overflow:visible"
       id="marker1284-6-0"
       refX="0"
       refY="0"
       orient="auto"
       inkscape:stockid="Arrow1Mend"
       inkscape:isstock="true">
      <path
         transform="matrix(-0.4,0,0,-0.4,-4,0)"
         style="fill:#000000;fill-opacity:1;fill-rule:evenodd;stroke:#000000;stroke-width:1pt;stroke-opacity:1"
         d="M 0,0 5,-5 -12.5,0 5,5 Z"
         id="path1282-2-9" />
    </marker>
    <marker
       style="overflow:visible"
       id="marker1284-6-0-5"
       refX="0"
       refY="0"
       orient="auto"
       inkscape:stockid="Arrow1Mend"
       inkscape:isstock="true">
      <path
         transform="matrix(-0.4,0,0,-0.4,-4,0)"
         style="fill:#000000;fill-opacity:1;fill-rule:evenodd;stroke:#000000;stroke-width:1pt;stroke-opacity:1"
         d="M 0,0 5,-5 -12.5,0 5,5 Z"
         id="path1282-2-9-6" />
    </marker>
    <marker
       style="overflow:visible"
       id="marker1284-6-0-5-9"
       refX="0"
       refY="0"
       orient="auto"
       inkscape:stockid="Arrow1Mend"
       inkscape:isstock="true">
      <path
         transform="matrix(-0.4,0,0,-0.4,-4,0)"
         style="fill:#000000;fill-opacity:1;fill-rule:evenodd;stroke:#000000;stroke-width:1pt;stroke-opacity:1"
         d="M 0,0 5,-5 -12.5,0 5,5 Z"
         id="path1282-2-9-6-1" />
    </marker>
    <marker
       style="overflow:visible"
       id="marker1284-6-0-5-9-2"
       refX="0"
       refY="0"
       orient="auto"
       inkscape:stockid="Arrow1Mend"
       inkscape:isstock="true">
      <path
         transform="matrix(-0.4,0,0,-0.4,-4,0)"
         style="fill:#000000;fill-opacity:1;fill-rule:evenodd;stroke:#000000;stroke-width:1pt;stroke-opacity:1"
         d="M 0,0 5,-5 -12.5,0 5,5 Z"
         id="path1282-2-9-6-1-0" />
    </marker>
    <marker
       style="overflow:visible"
       id="marker1284-6-0-5-9-2-3"
       refX="0"
       refY="0"
       orient="auto"
       inkscape:stockid="Arrow1Mend"
       inkscape:isstock="true">
      <path
         transform="matrix(-0.4,0,0,-0.4,-4,0)"
         style="fill:#000000;fill-opacity:1;fill-rule:evenodd;stroke:#000000;stroke-width:1pt;stroke-opacity:1"
         d="M 0,0 5,-5 -12.5,0 5,5 Z"
         id="path1282-2-9-6-1-0-7" />
    </marker>
  </defs>
  <sodipodi:namedview
     id="base"
     pagecolor="#ffffff"
     bordercolor="#666666"
     borderopacity="1.0"
     inkscape:pageopacity="0.0"
     inkscape:pageshadow="2"
     inkscape:zoom="0.49497475"
     inkscape:cx="679.133"
     inkscape:cy="258.43639"
     inkscape:document-units="mm"
     inkscape:current-layer="layer1"
     inkscape:document-rotation="0"
     showgrid="false"
     inkscape:object-paths="false"
     inkscape:snap-intersection-paths="false"
     inkscape:snap-smooth-nodes="false"
     inkscape:window-width="1918"
     inkscape:window-height="1053"
     inkscape:window-x="0"
     inkscape:window-y="25"
     inkscape:window-maximized="0"
     inkscape:object-nodes="false" />
  <metadata
     id="metadata5">
    <rdf:RDF>
      <cc:Work
         rdf:about="">
        <dc:format>image/svg+xml</dc:format>
        <dc:type
           rdf:resource="http://purl.org/dc/dcmitype/StillImage" />
        <dc:title></dc:title>
      </cc:Work>
    </rdf:RDF>
  </metadata>
  <g
     inkscape:label="Layer 1"
     inkscape:groupmode="layer"
     id="layer1"
     transform="translate(-57.679705,-121.26548)">
    <path
       style="fill:none;stroke:#000000;stroke-width:1.52887;stroke-miterlimit:4;stroke-dasharray:none;stroke-opacity:1"
       d="m 130.01766,182.04145 c 0.56161,21.51483 17.46017,38.65226 38.11446,38.6532 20.65528,5.1e-4 37.55536,-17.13736 38.117,-38.6532"
       id="path833-3-3"
       sodipodi:nodetypes="ccc" />
    <path
       style="fill:none;stroke:#000000;stroke-width:1.10805;stroke-linecap:butt;stroke-linejoin:miter;stroke-miterlimit:4;stroke-dasharray:none;stroke-opacity:1;marker-end:url(#marker1284-6-0-5-9)"
       d="m 208.6737,214.34152 h 50.91722"
       id="path1093-9-3-2-2" />
    <path
       style="fill:none;stroke:#000000;stroke-width:1.52887;stroke-miterlimit:4;stroke-dasharray:none;stroke-opacity:1"
       d="m 206.24912,182.04145 -71.55969,27.22558 c -0.56164,21.51593 -17.46171,38.6538 -38.116991,38.6533 -20.654269,-9.4e-4 -37.552818,-17.13838 -38.114419,-38.6533 l 71.55964,-27.22558"
       id="path833-3-3-7"
       sodipodi:nodetypes="ccc" />
    <path
       style="fill:none;stroke:#000000;stroke-width:1.26986;stroke-linecap:butt;stroke-linejoin:miter;stroke-miterlimit:4;stroke-dasharray:none;stroke-opacity:1"
       d="m 105.11763,247.14348 c 16.81683,-6.39813 33.63366,-12.79626 50.45048,-19.19441 7.03642,-2.67708 14.07284,-5.35417 21.10926,-8.03126"
       id="path3214"
       inkscape:path-effect="#path-effect3216"
       inkscape:original-d="m 105.11763,247.14348 50.45048,-19.19441 21.10926,-8.03126"
       sodipodi:nodetypes="ccc" />
    <path
       style="color:#000000;font-style:normal;font-variant:normal;font-weight:normal;font-stretch:normal;font-size:medium;line-height:normal;font-family:sans-serif;font-variant-ligatures:normal;font-variant-position:normal;font-variant-caps:normal;font-variant-numeric:normal;font-variant-alternates:normal;font-variant-east-asian:normal;font-feature-settings:normal;font-variation-settings:normal;text-indent:0;text-align:start;text-decoration:none;text-decoration-line:none;text-decoration-style:solid;text-decoration-color:#000000;letter-spacing:normal;word-spacing:normal;text-transform:none;writing-mode:lr-tb;direction:ltr;text-orientation:mixed;dominant-baseline:auto;baseline-shift:baseline;text-anchor:start;white-space:normal;shape-padding:0;shape-margin:0;inline-size:0;clip-rule:nonzero;display:inline;overflow:visible;visibility:visible;isolation:auto;mix-blend-mode:normal;color-interpolation:sRGB;color-interpolation-filters:linearRGB;solid-color:#000000;solid-opacity:1;vector-effect:none;fill:#000000;fill-opacity:1;fill-rule:nonzero;stroke:#000000;stroke-width:0.632757;stroke-linecap:butt;stroke-linejoin:miter;stroke-miterlimit:4;stroke-dasharray:0.632757, 1.26551;stroke-dashoffset:0;stroke-opacity:1;color-rendering:auto;image-rendering:auto;shape-rendering:auto;text-rendering:auto;enable-background:accumulate;stop-color:#000000"
       d="m 130.59883,234.80062 37.53329,-14.27912 -0.0737,-0.19099 -37.5318,14.27911 z"
       id="path3245-6"
       sodipodi:nodetypes="ccccc" />
    <path
       style="fill:none;stroke:#000000;stroke-width:1.52887;stroke-miterlimit:4;stroke-dasharray:none;stroke-opacity:1"
       d="m 91.638459,196.157 c 0.56161,21.51483 17.460171,38.65226 38.114461,38.6532 20.65528,5e-4 37.55535,-17.13736 38.11699,-38.6532"
       id="path833-3-3-6"
       sodipodi:nodetypes="ccc" />
    <path
       style="fill:none;stroke:#000000;stroke-width:1.52887;stroke-miterlimit:4;stroke-dasharray:none;stroke-opacity:1"
       d="m 167.86834,196.64379 c -0.4242,-21.51798 -17.21299,-38.76296 -37.86685,-38.89581 -20.65485,-0.13249 -37.664011,16.89719 -38.363031,38.40902"
       id="path833-3-3-6-1"
       sodipodi:nodetypes="ccc" />
    <path
       style="fill:none;stroke:#000000;stroke-width:0.772079;stroke-linecap:butt;stroke-linejoin:miter;stroke-miterlimit:4;stroke-dasharray:none;stroke-opacity:1"
       d="m 168.0584,220.33051 v -77.044"
       id="path3573-7" />
    <path
       style="fill:none;stroke:#000000;stroke-width:0.772079;stroke-linecap:butt;stroke-linejoin:miter;stroke-miterlimit:4;stroke-dasharray:none;stroke-opacity:1"
       d="M 130.00149,157.74798 168.0584,143.28651"
       id="path3599" />
    <rect
       style="fill:#000000;fill-opacity:0.15;stroke:#000000;stroke-width:0.845222;stroke-miterlimit:4;stroke-dasharray:none;stroke-dashoffset:0;stroke-opacity:1"
       id="rect3614"
       width="67.486702"
       height="71.459969"
       x="271.43158"
       y="157.0108" />
    <rect
       style="fill:#000000;fill-opacity:0.15;stroke:#000000;stroke-width:1.08151;stroke-miterlimit:4;stroke-dasharray:none;stroke-dashoffset:0;stroke-opacity:1"
       id="rect3654"
       width="67.486725"
       height="85.05172"
       x="454.10202"
       y="247.80269"
       transform="matrix(1,0,-0.62447373,0.78104581,0,0)" />
    <rect
       style="fill:#000000;fill-opacity:0.15;stroke:#000000;stroke-width:1.14016;stroke-miterlimit:4;stroke-dasharray:none;stroke-dashoffset:0;stroke-opacity:1"
       id="rect3676"
       width="44.372478"
       height="70.863586"
       x="487.29779"
       y="538.4151"
       transform="matrix(0.62241093,-0.78269064,0,1,0,0)" />
    <path
       style="fill:#eb1815;fill-opacity:1;stroke:none;stroke-width:0.932849;stroke-miterlimit:4;stroke-dasharray:none;stroke-opacity:1"
       id="path908-7-5-2-9"
       sodipodi:type="arc"
       sodipodi:cx="-302.76526"
       sodipodi:cy="-227.87436"
       sodipodi:rx="1.592285"
       sodipodi:ry="1.6703893"
       sodipodi:start="0"
       sodipodi:end="6.2190619"
       sodipodi:arc-type="arc"
       d="m -301.17297,-227.87436 a 1.592285,1.6703893 0 0 1 -1.56676,1.67018 1.592285,1.6703893 0 0 1 -1.617,-1.61663 1.592285,1.6703893 0 0 1 1.51492,-1.72201 1.592285,1.6703893 0 0 1 1.66556,1.56142"
       transform="scale(-1)"
       sodipodi:open="true" />
    <path
       style="fill:none;stroke:#000000;stroke-width:1.10805;stroke-linecap:butt;stroke-linejoin:miter;stroke-miterlimit:4;stroke-dasharray:none;stroke-opacity:1;marker-end:url(#marker1284-6-0-5-9-2)"
       d="m 368.85016,214.34152 h 50.91722"
       id="path1093-9-3-2-2-2" />
    <path
       style="fill:none;stroke:#000000;stroke-width:0.665;stroke-linecap:butt;stroke-linejoin:miter;stroke-miterlimit:4;stroke-dasharray:none;stroke-opacity:1"
       d="m 413.72966,259.97453 53.11256,-66.42928 31.56164,-0.39992 v -70.86359 l -27.61722,34.72906 h 35.61809 v 71.45996 l 27.92421,-34.92551 h -36.2431 36.2431 l -53.11257,66.42928 h -67.48671 l 25.18839,-31.50377 V 157.0108 l 31.86789,8e-4"
       id="path3834" />
    <path
       style="fill:none;stroke:#000000;stroke-width:1.10805;stroke-linecap:butt;stroke-linejoin:miter;stroke-miterlimit:4;stroke-dasharray:none;stroke-opacity:1;marker-end:url(#marker1284-6-0-5-9-2-3)"
       d="m 530.43802,214.34152 h 50.91723"
       id="path1093-9-3-2-2-2-5" />
    <circle
       style="fill:none;fill-opacity:0.15;stroke:#000000;stroke-width:0.665001;stroke-miterlimit:4;stroke-dasharray:none;stroke-dashoffset:0;stroke-opacity:1"
       id="path3975"
       cx="-648.69208"
       cy="-206.10655"
       r="43.277664"
       transform="rotate(-179.83391)" />
    <path
       style="fill:none;stroke:#000000;stroke-width:0.665;stroke-linecap:butt;stroke-linejoin:miter;stroke-miterlimit:4;stroke-dasharray:none;stroke-opacity:1"
       d="m 648.2174,164.70868 -0.13019,44.90901 35.33489,23.36318 -35.3357,-23.08389 -35.52351,22.8004 35.52432,-23.07969 z"
       id="path3986" />
    <path
       style="fill:#a415eb;fill-opacity:1;stroke:none;stroke-width:2.07921;stroke-miterlimit:4;stroke-dasharray:none;stroke-opacity:1"
       id="path908-7-5-2-3-6"
       sodipodi:type="arc"
       sodipodi:cx="-303.18497"
       sodipodi:cy="-227.57698"
       sodipodi:rx="3.5490036"
       sodipodi:ry="3.7230892"
       sodipodi:start="0"
       sodipodi:end="6.2190619"
       sodipodi:open="true"
       sodipodi:arc-type="arc"
       d="m -299.63596,-227.57698 a 3.5490036,3.7230892 0 0 1 -3.49212,3.72261 3.5490036,3.7230892 0 0 1 -3.60407,-3.60326 3.5490036,3.7230892 0 0 1 3.37657,-3.83814 3.5490036,3.7230892 0 0 1 3.71232,3.48022"
       transform="scale(-1)" />
    <path
       style="fill:none;stroke:#000000;stroke-width:0.772;stroke-linecap:butt;stroke-linejoin:miter;stroke-miterlimit:4;stroke-dasharray:0.772,1.544;stroke-opacity:1;stroke-dashoffset:0"
       d="m 130.00149,234.79198 v -77.044"
       id="path3573-7-3" />
    <path
       style="fill:#a415eb;fill-opacity:1;stroke:none;stroke-width:2.07921;stroke-miterlimit:4;stroke-dasharray:none;stroke-opacity:1"
       id="path908-7-5-2-3-67"
       sodipodi:type="arc"
       sodipodi:cx="-130.64883"
       sodipodi:cy="-233.51331"
       sodipodi:rx="3.5490036"
       sodipodi:ry="3.7230892"
       sodipodi:start="0"
       sodipodi:end="6.2190619"
       sodipodi:open="true"
       sodipodi:arc-type="arc"
       d="m -127.09983,-233.51331 a 3.5490036,3.7230892 0 0 1 -3.49211,3.72262 3.5490036,3.7230892 0 0 1 -3.60407,-3.60327 3.5490036,3.7230892 0 0 1 3.37656,-3.83813 3.5490036,3.7230892 0 0 1 3.71233,3.48021"
       transform="scale(-1)" />
  </g>
</svg>
