<?xml version="1.0" encoding="UTF-8" standalone="no"?>
<svg
   xmlns:dc="http://purl.org/dc/elements/1.1/"
   xmlns:cc="http://creativecommons.org/ns#"
   xmlns:rdf="http://www.w3.org/1999/02/22-rdf-syntax-ns#"
   xmlns:svg="http://www.w3.org/2000/svg"
   xmlns="http://www.w3.org/2000/svg"
   xmlns:sodipodi="http://sodipodi.sourceforge.net/DTD/sodipodi-0.dtd"
   xmlns:inkscape="http://www.inkscape.org/namespaces/inkscape"
   width="425.24591mm"
   height="44.861618mm"
   viewBox="0 0 425.24591 44.861618"
   version="1.1"
   id="svg8"
   inkscape:version="1.0.1 (3bc2e813f5, 2020-09-07)"
   sodipodi:docname="h5.svg">
  <defs
     id="defs2">
    <inkscape:perspective
       sodipodi:type="inkscape:persp3d"
       inkscape:vp_x="0 : -55.48374 : 1"
       inkscape:vp_y="0 : 999.99999 : 0"
       inkscape:vp_z="300.76749 : -55.48374 : 1"
       inkscape:persp3d-origin="150.38375 : -88.932192 : 1"
       id="perspective1114" />
    <marker
       style="overflow:visible"
       id="marker1284"
       refX="0"
       refY="0"
       orient="auto"
       inkscape:stockid="Arrow1Mend"
       inkscape:isstock="true">
      <path
         transform="matrix(-0.4,0,0,-0.4,-4,0)"
         style="fill:#000000;fill-opacity:1;fill-rule:evenodd;stroke:#000000;stroke-width:1pt;stroke-opacity:1"
         d="M 0,0 5,-5 -12.5,0 5,5 Z"
         id="path1282" />
    </marker>
    <marker
       style="overflow:visible"
       id="EmptyTriangleOutL"
       refX="0"
       refY="0"
       orient="auto"
       inkscape:stockid="EmptyTriangleOutL"
       inkscape:isstock="true">
      <path
         transform="matrix(0.8,0,0,0.8,-4.8,0)"
         style="fill:#ffffff;fill-rule:evenodd;stroke:#000000;stroke-width:1pt;stroke-opacity:1"
         d="M 5.77,0 -2.88,5 V -5 Z"
         id="path1072" />
    </marker>
    <marker
       style="overflow:visible"
       id="Arrow1Mend"
       refX="0"
       refY="0"
       orient="auto"
       inkscape:stockid="Arrow1Mend"
       inkscape:isstock="true">
      <path
         transform="matrix(-0.4,0,0,-0.4,-4,0)"
         style="fill:#000000;fill-opacity:1;fill-rule:evenodd;stroke:#000000;stroke-width:1pt;stroke-opacity:1"
         d="M 0,0 5,-5 -12.5,0 5,5 Z"
         id="path921" />
    </marker>
    <marker
       style="overflow:visible"
       id="Arrow1Lend"
       refX="0"
       refY="0"
       orient="auto"
       inkscape:stockid="Arrow1Lend"
       inkscape:isstock="true">
      <path
         transform="matrix(-0.8,0,0,-0.8,-10,0)"
         style="fill:#000000;fill-opacity:1;fill-rule:evenodd;stroke:#000000;stroke-width:1pt;stroke-opacity:1"
         d="M 0,0 5,-5 -12.5,0 5,5 Z"
         id="path915" />
    </marker>
    <marker
       style="overflow:visible"
       id="marker1284-6"
       refX="0"
       refY="0"
       orient="auto"
       inkscape:stockid="Arrow1Mend"
       inkscape:isstock="true">
      <path
         transform="matrix(-0.4,0,0,-0.4,-4,0)"
         style="fill:#000000;fill-opacity:1;fill-rule:evenodd;stroke:#000000;stroke-width:1pt;stroke-opacity:1"
         d="M 0,0 5,-5 -12.5,0 5,5 Z"
         id="path1282-2" />
    </marker>
    <marker
       style="overflow:visible"
       id="marker1284-6-0"
       refX="0"
       refY="0"
       orient="auto"
       inkscape:stockid="Arrow1Mend"
       inkscape:isstock="true">
      <path
         transform="matrix(-0.4,0,0,-0.4,-4,0)"
         style="fill:#000000;fill-opacity:1;fill-rule:evenodd;stroke:#000000;stroke-width:1pt;stroke-opacity:1"
         d="M 0,0 5,-5 -12.5,0 5,5 Z"
         id="path1282-2-9" />
    </marker>
  </defs>
  <sodipodi:namedview
     id="base"
     pagecolor="#ffffff"
     bordercolor="#666666"
     borderopacity="1.0"
     inkscape:pageopacity="0.0"
     inkscape:pageshadow="2"
     inkscape:zoom="0.98994949"
     inkscape:cx="453.69983"
     inkscape:cy="86.300735"
     inkscape:document-units="mm"
     inkscape:current-layer="layer1"
     inkscape:document-rotation="0"
     showgrid="false"
     inkscape:window-width="1918"
     inkscape:window-height="1053"
     inkscape:window-x="0"
     inkscape:window-y="25"
     inkscape:window-maximized="0" />
  <metadata
     id="metadata5">
    <rdf:RDF>
      <cc:Work
         rdf:about="">
        <dc:format>image/svg+xml</dc:format>
        <dc:type
           rdf:resource="http://purl.org/dc/dcmitype/StillImage" />
        <dc:title></dc:title>
      </cc:Work>
    </rdf:RDF>
  </metadata>
  <g
     inkscape:label="Layer 1"
     inkscape:groupmode="layer"
     id="layer1"
     transform="translate(-71.763991,-249.56985)">
    <path
       style="fill:none;stroke:#000000;stroke-width:0.677511;stroke-miterlimit:4;stroke-dasharray:none;stroke-opacity:1"
       d="m 89.231736,254.48585 c -9.53421,0.24887 -17.12858,7.73735 -17.12899,16.89013 -2.3e-4,9.15322 7.59433,16.64236 17.12899,16.89124"
       id="path833-3-3"
       sodipodi:nodetypes="ccc" />
    <path
       style="fill:none;stroke:#000000;stroke-width:0.677511;stroke-miterlimit:4;stroke-dasharray:none;stroke-opacity:1"
       d="m 133.68202,254.48585 c -9.53421,0.24887 -17.12858,7.73735 -17.12899,16.89013 -2.3e-4,9.15322 7.59433,16.64236 17.12899,16.89124"
       id="path833-3-3-6"
       sodipodi:nodetypes="ccc" />
    <path
       style="fill:none;stroke:#000000;stroke-width:0.678;stroke-miterlimit:4;stroke-dasharray:0.678, 1.356;stroke-dashoffset:0;stroke-opacity:1"
       d="m 111.45688,254.48585 c -9.53421,0.24887 -17.128584,7.73735 -17.128994,16.89013 -2.3e-4,9.15322 7.594334,16.64236 17.128994,16.89124"
       id="path833-3-3-6-7"
       sodipodi:nodetypes="ccc" />
    <path
       style="fill:none;stroke:#000000;stroke-width:0.565;stroke-linecap:butt;stroke-linejoin:miter;stroke-miterlimit:4;stroke-dasharray:none;stroke-opacity:1"
       d="M 89.231736,254.48585 H 133.68202"
       id="path1055" />
    <path
       style="fill:none;stroke:#000000;stroke-width:0;stroke-linecap:butt;stroke-linejoin:miter;stroke-miterlimit:4;stroke-dasharray:none;stroke-opacity:1"
       d="M 89.231736,288.26722 H 133.68202"
       id="path1057" />
    <path
       style="fill:none;stroke:#000000;stroke-width:0.565;stroke-linecap:butt;stroke-linejoin:miter;stroke-miterlimit:4;stroke-dasharray:none;stroke-opacity:1"
       d="M 89.231736,288.26722 H 133.68202"
       id="path1059" />
    <path
       style="fill:none;stroke:#000000;stroke-width:0.620787;stroke-miterlimit:4;stroke-dasharray:0.620787, 0.620787;stroke-dashoffset:0;stroke-opacity:1"
       d="m 111.45599,254.4868 c 7.995,0.24916 14.36332,7.74659 14.36368,16.91032 1.9e-4,9.16417 -6.3683,16.66226 -14.36368,16.91143"
       id="path833-3-3-6-5"
       sodipodi:nodetypes="ccc" />
    <path
       style="fill:#eb1815;fill-opacity:1;stroke:none;stroke-width:0.86299;stroke-miterlimit:4;stroke-dasharray:none;stroke-opacity:1"
       id="path908-7-3"
       sodipodi:type="arc"
       sodipodi:cx="94.662544"
       sodipodi:cy="272.02112"
       sodipodi:rx="1.6327485"
       sodipodi:ry="1.3941522"
       sodipodi:start="0"
       sodipodi:end="6.2190619"
       sodipodi:open="true"
       sodipodi:arc-type="arc"
       d="m 96.295293,272.02112 a 1.6327485,1.3941522 0 0 1 -1.606576,1.39397 1.6327485,1.3941522 0 0 1 -1.658082,-1.34928 1.6327485,1.3941522 0 0 1 1.553416,-1.43723 1.6327485,1.3941522 0 0 1 1.707886,1.3032" />
    <path
       style="fill:none;stroke:#000000;stroke-width:0.765;stroke-linecap:butt;stroke-linejoin:miter;stroke-miterlimit:4;stroke-dasharray:none;stroke-opacity:1;marker-end:url(#marker1284)"
       d="m 138.46765,271.49091 h 38.40657"
       id="path1093" />
    <rect
       style="fill:#000000;fill-opacity:0.292233;stroke:#000000;stroke-width:0.723534;stroke-miterlimit:4;stroke-dasharray:none;stroke-dashoffset:0"
       id="rect1108"
       width="45.868069"
       height="40.860382"
       x="477.56256"
       y="377.15704"
       ry="0"
       transform="matrix(1,0,-0.71115007,0.70304024,0,0)" />
    <rect
       style="fill:#000000;fill-opacity:0.292233;stroke:#000000;stroke-width:0.516673;stroke-miterlimit:4;stroke-dasharray:none;stroke-dashoffset:0"
       id="rect1110"
       width="45.723625"
       height="30.580799"
       x="193.46434"
       y="250.43459"
       ry="0.29765469" />
    <path
       style="fill:#eb1815;fill-opacity:1;stroke:none;stroke-width:1.09587;stroke-miterlimit:4;stroke-dasharray:none;stroke-opacity:1"
       id="path908-7-5"
       sodipodi:type="arc"
       sodipodi:cx="216.3945"
       sodipodi:cy="281.198"
       sodipodi:rx="2.1018186"
       sodipodi:ry="1.7463694"
       sodipodi:start="0"
       sodipodi:end="6.2190619"
       sodipodi:open="true"
       sodipodi:arc-type="arc"
       d="m 218.49632,281.198 a 2.1018186,1.7463694 0 0 1 -2.06813,1.74614 2.1018186,1.7463694 0 0 1 -2.13443,-1.69016 2.1018186,1.7463694 0 0 1 1.9997,-1.80033 2.1018186,1.7463694 0 0 1 2.19854,1.63244" />
    <path
       style="fill:none;stroke:#000000;stroke-width:0.765;stroke-linecap:butt;stroke-linejoin:miter;stroke-miterlimit:4;stroke-dasharray:none;stroke-opacity:1;marker-end:url(#marker1284-6)"
       d="m 260.70592,271.49091 h 38.40657"
       id="path1093-9" />
    <rect
       style="fill:none;fill-opacity:0.292233;stroke:#000000;stroke-width:0.723535;stroke-miterlimit:4;stroke-dasharray:none;stroke-dashoffset:0"
       id="rect1108-1"
       width="45.868069"
       height="40.860382"
       x="593.88953"
       y="377.57532"
       ry="0"
       transform="matrix(1,0,-0.71115007,0.70304024,0,0)" />
    <g
       id="g1263"
       style="opacity:1"
       transform="translate(-49.460458,33.206572)">
      <path
         style="color:#000000;font-style:normal;font-variant:normal;font-weight:normal;font-stretch:normal;font-size:medium;line-height:normal;font-family:sans-serif;font-variant-ligatures:normal;font-variant-position:normal;font-variant-caps:normal;font-variant-numeric:normal;font-variant-alternates:normal;font-variant-east-asian:normal;font-feature-settings:normal;font-variation-settings:normal;text-indent:0;text-align:start;text-decoration:none;text-decoration-line:none;text-decoration-style:solid;text-decoration-color:#000000;letter-spacing:normal;word-spacing:normal;text-transform:none;writing-mode:lr-tb;direction:ltr;text-orientation:mixed;dominant-baseline:auto;baseline-shift:baseline;text-anchor:start;white-space:normal;shape-padding:0;shape-margin:0;inline-size:0;clip-rule:nonzero;display:inline;overflow:visible;visibility:visible;isolation:auto;mix-blend-mode:normal;color-interpolation:sRGB;color-interpolation-filters:linearRGB;solid-color:#000000;solid-opacity:1;vector-effect:none;fill:none;fill-opacity:0.292233;fill-rule:nonzero;stroke:none;stroke-width:0.516673;stroke-linecap:butt;stroke-linejoin:miter;stroke-miterlimit:4;stroke-dasharray:none;stroke-dashoffset:0;stroke-opacity:1;color-rendering:auto;image-rendering:auto;shape-rendering:auto;text-rendering:auto;enable-background:accumulate;stop-color:#000000;stop-opacity:1"
         d="m 360.1162,216.62157 h 45.12831 c 0.1649,0 0.29766,0.13275 0.29766,0.29765 v 29.98549 c 0,0.1649 -0.13276,0.29766 -0.29766,0.29766 H 360.1162 c -0.1649,0 -0.29766,-0.13276 -0.29766,-0.29766 v -29.98549 c 0,-0.1649 0.13276,-0.29765 0.29766,-0.29765 z"
         id="path1265" />
      <path
         style="color:#000000;font-style:normal;font-variant:normal;font-weight:normal;font-stretch:normal;font-size:medium;line-height:normal;font-family:sans-serif;font-variant-ligatures:normal;font-variant-position:normal;font-variant-caps:normal;font-variant-numeric:normal;font-variant-alternates:normal;font-variant-east-asian:normal;font-feature-settings:normal;font-variation-settings:normal;text-indent:0;text-align:start;text-decoration:none;text-decoration-line:none;text-decoration-style:solid;text-decoration-color:#000000;letter-spacing:normal;word-spacing:normal;text-transform:none;writing-mode:lr-tb;direction:ltr;text-orientation:mixed;dominant-baseline:auto;baseline-shift:baseline;text-anchor:start;white-space:normal;shape-padding:0;shape-margin:0;inline-size:0;clip-rule:nonzero;display:inline;overflow:visible;visibility:visible;isolation:auto;mix-blend-mode:normal;color-interpolation:sRGB;color-interpolation-filters:linearRGB;solid-color:#000000;solid-opacity:1;vector-effect:none;fill:#000000;fill-opacity:1;fill-rule:nonzero;stroke:none;stroke-width:0.516673;stroke-linecap:butt;stroke-linejoin:miter;stroke-miterlimit:4;stroke-dasharray:none;stroke-dashoffset:0;stroke-opacity:1;color-rendering:auto;image-rendering:auto;shape-rendering:auto;text-rendering:auto;enable-background:accumulate;stop-color:#000000;stop-opacity:1"
         d="m 359.56055,246.9043 c 0,0.30355 0.25113,0.55664 0.55468,0.55664 m 45.12891,0 c 0.30356,0 0.55664,-0.25309 0.55664,-0.55664 m 0,0 v -29.98438 c 0,-0.30355 -0.25309,-0.55664 -0.55664,-0.55664 h -45.12891 c -0.30354,0 -0.55468,0.25309 -0.55468,0.55664 v 29.98438 m 45.72265,0 c 0,0.0262 -0.0128,0.0391 -0.0391,0.0391 m 0,0 h -45.12891 m 0,0 c -0.0262,0 -0.0391,-0.0128 -0.0391,-0.0391 m 0,0 v -29.98438 c 0,-0.0262 0.0128,-0.0391 0.0391,-0.0391 h 45.12891 c 0.0263,0 0.0391,0.0128 0.0391,0.0391 v 29.98438"
         id="path1267"
         sodipodi:nodetypes="cccccssssccccccccssssc" />
    </g>
    <path
       style="fill:none;stroke:#000000;stroke-width:0.765;stroke-linecap:butt;stroke-linejoin:miter;stroke-miterlimit:4;stroke-dasharray:none;stroke-opacity:1;marker-end:url(#marker1284-6-0)"
       d="m 377.65249,271.49091 h 38.40657"
       id="path1093-9-3" />
    <rect
       style="fill:none;fill-opacity:0.292233;stroke:#000000;stroke-width:0.603999;stroke-miterlimit:4;stroke-dasharray:none;stroke-dashoffset:0"
       id="rect1362"
       width="65.765953"
       height="42.438091"
       x="430.94196"
       y="250.62717"
       ry="0.37656823" />
    <path
       style="fill:none;stroke:#000000;stroke-width:0.665;stroke-linecap:butt;stroke-linejoin:miter;stroke-miterlimit:4;stroke-dasharray:none;stroke-opacity:1"
       d="M 464.57681,250.12393 V 293.5149"
       id="path1364" />
  </g>
</svg>
