<?xml version="1.0" encoding="UTF-8" standalone="no"?>
<svg
   xmlns:dc="http://purl.org/dc/elements/1.1/"
   xmlns:cc="http://creativecommons.org/ns#"
   xmlns:rdf="http://www.w3.org/1999/02/22-rdf-syntax-ns#"
   xmlns:svg="http://www.w3.org/2000/svg"
   xmlns="http://www.w3.org/2000/svg"
   xmlns:sodipodi="http://sodipodi.sourceforge.net/DTD/sodipodi-0.dtd"
   xmlns:inkscape="http://www.inkscape.org/namespaces/inkscape"
   version="1.1"
   id="svg912"
   xml:space="preserve"
   width="1672.2606"
   height="349.15457"
   viewBox="0 0 1672.2606 349.15457"
   sodipodi:docname="h7.svg"
   inkscape:version="1.0.1 (3bc2e813f5, 2020-09-07)"><metadata
     id="metadata918"><rdf:RDF><cc:Work
         rdf:about=""><dc:format>image/svg+xml</dc:format><dc:type
           rdf:resource="http://purl.org/dc/dcmitype/StillImage" /><dc:title></dc:title></cc:Work></rdf:RDF></metadata><defs
     id="defs916" /><sodipodi:namedview
     pagecolor="#ffffff"
     bordercolor="#666666"
     borderopacity="1"
     objecttolerance="10"
     gridtolerance="10"
     guidetolerance="10"
     inkscape:pageopacity="0"
     inkscape:pageshadow="2"
     inkscape:window-width="1918"
     inkscape:window-height="1053"
     id="namedview914"
     showgrid="false"
     inkscape:zoom="1.0469638"
     inkscape:cx="196.51536"
     inkscape:cy="174.57729"
     inkscape:window-x="0"
     inkscape:window-y="25"
     inkscape:window-maximized="0"
     inkscape:current-layer="g922" /><g
     id="g920"
     inkscape:groupmode="layer"
     inkscape:label="h7"
     transform="matrix(1.3333333,0,0,1.3333333,0,7.3955312e-6)"><g
       id="g922"><path
         d="m 444.781,136.383 h 130.02 l -82.367,81.429 h -130.02 z"
         style="fill:#000000;fill-opacity:0.292233;fill-rule:nonzero;stroke:none"
         id="path924" /><g
         id="g926"
         transform="matrix(1,0,-0.71115,0.70304,0,0)"><path
           d="m 582.737,193.99 h 130.02 l 0.002,115.825 h -130.02 z"
           style="fill:none;stroke:#000000;stroke-width:2.05096;stroke-linecap:butt;stroke-linejoin:miter;stroke-miterlimit:4;stroke-dasharray:none;stroke-opacity:1"
           id="path928" /></g><path
         d="m 401.023,51.602 h 127.086 c 0.7,0 1.262,0.562 1.262,1.261 v 127.211 c 0,0.699 -0.562,1.262 -1.262,1.262 H 401.023 c -0.699,0 -1.261,-0.563 -1.261,-1.262 V 52.863 c 0,-0.699 0.562,-1.261 1.261,-1.261 z"
         style="fill:#000000;fill-opacity:0.292233;fill-rule:nonzero;stroke:none"
         id="path930" /><g
         id="g932"><path
           d="m 401.023,51.602 h 127.086 c 0.7,0 1.262,0.562 1.262,1.261 v 127.211 c 0,0.699 -0.562,1.262 -1.262,1.262 H 401.023 c -0.699,0 -1.261,-0.563 -1.261,-1.262 V 52.863 c 0,-0.699 0.562,-1.261 1.261,-1.261 z"
           style="fill:none;stroke:#000000;stroke-width:1.79172;stroke-linecap:butt;stroke-linejoin:miter;stroke-miterlimit:4;stroke-dasharray:none;stroke-opacity:1"
           id="path934" /></g><path
         d="m 404.43,180.527 c 0,1.813 -1.75,3.285 -3.926,3.317 -2.18,0.027 -3.984,-1.403 -4.055,-3.211 -0.07,-1.809 1.621,-3.328 3.797,-3.418 2.176,-0.086 4.035,1.293 4.176,3.101"
         style="fill:#eb1815;fill-opacity:1;fill-rule:nonzero;stroke:none"
         id="path936" /><g
         id="g938"><path
           d="M 572.359,110.848 H 681.227"
           style="fill:none;stroke:#000000;stroke-width:2.1685;stroke-linecap:butt;stroke-linejoin:miter;stroke-miterlimit:4;stroke-dasharray:none;stroke-opacity:1"
           id="path940" /></g><g
         id="g942"
         transform="scale(-1)"><path
           d="m -672.555,-110.848 4.34,-4.336 -15.18,4.336 15.18,4.336 z"
           style="fill:#000000;fill-opacity:1;fill-rule:evenodd;stroke:#000000;stroke-width:1.15654;stroke-linecap:butt;stroke-linejoin:miter;stroke-miterlimit:4;stroke-dasharray:none;stroke-opacity:1"
           id="path944" /></g><g
         id="g946"><path
           d="M 920.359,110.848 H 1029.23"
           style="fill:none;stroke:#000000;stroke-width:2.1685;stroke-linecap:butt;stroke-linejoin:miter;stroke-miterlimit:4;stroke-dasharray:none;stroke-opacity:1"
           id="path948" /></g><g
         id="g950"
         transform="scale(-1)"><path
           d="m -1020.555,-110.848 4.336,-4.336 -15.179,4.336 15.179,4.336 z"
           style="fill:#000000;fill-opacity:1;fill-rule:evenodd;stroke:#000000;stroke-width:1.15654;stroke-linecap:butt;stroke-linejoin:miter;stroke-miterlimit:4;stroke-dasharray:none;stroke-opacity:1"
           id="path952" /></g><g
         id="g954"><path
           d="m 1067.984,51.707 h 184.289 c 0.59,0 1.067,0.477 1.067,1.066 v 118.165 c 0,0.589 -0.477,1.066 -1.067,1.066 h -184.289 c -0.593,0 -1.066,-0.477 -1.066,-1.066 V 52.773 c 0,-0.589 0.473,-1.066 1.066,-1.066 z"
           style="fill:none;stroke:#000000;stroke-width:1.71212;stroke-linecap:butt;stroke-linejoin:miter;stroke-miterlimit:4;stroke-dasharray:none;stroke-opacity:1"
           id="path956" /></g><g
         id="g958"><path
           d="M 1159.258,50.281 V 173.277"
           style="fill:none;stroke:#000000;stroke-width:1.88504;stroke-linecap:butt;stroke-linejoin:miter;stroke-miterlimit:4;stroke-dasharray:none;stroke-opacity:1"
           id="path960" /></g><path
         d="m 443.844,7.656 v 130.02 l -81.43,80.136 V 87.793 Z"
         style="fill:#000000;fill-opacity:0.292233;fill-rule:nonzero;stroke:none"
         id="path962" /><g
         id="g964"
         transform="matrix(0,1,-0.712744,0.701424,0,0)"><path
           d="M 444.451,-622.725 H 574.47 l 10e-4,114.248 h -130.02 z"
           style="fill:none;stroke:#000000;stroke-width:2.03695;stroke-linecap:butt;stroke-linejoin:miter;stroke-miterlimit:4;stroke-dasharray:none;stroke-opacity:1"
           id="path966" /></g><g
         id="g968"><path
           d="m 128.008,166.23 c 0.027,-1.156 0.043,-2.312 0.043,-3.468 0,-50.426 -28.504,-91.305 -63.672,-91.305 h -0.051 c -35.144,0.039 -63.621,40.906 -63.621,91.305 0.004,1.156 0.02,2.312 0.047,3.468"
           style="fill:none;stroke:#000000;stroke-width:1.41732;stroke-linecap:butt;stroke-linejoin:miter;stroke-miterlimit:4;stroke-dasharray:none;stroke-opacity:1"
           id="path970" /></g><g
         id="g972"><path
           d="m 248.617,261.238 c 0.031,-1.156 0.047,-2.312 0.047,-3.468 0,-50.426 -28.508,-91.305 -63.672,-91.305 h -0.054 c -35.145,0.039 -63.618,40.906 -63.618,91.305 0,1.156 0.016,2.312 0.047,3.468"
           style="fill:none;stroke:#000000;stroke-width:1.57414;stroke-linecap:butt;stroke-linejoin:miter;stroke-miterlimit:4;stroke-dasharray:none;stroke-opacity:1"
           id="path974" /></g><g
         id="g976"><path
           d="m 0.754,166.23 120.613,95.008"
           style="fill:none;stroke:#000000;stroke-width:1.60158;stroke-linecap:butt;stroke-linejoin:miter;stroke-miterlimit:4;stroke-dasharray:none;stroke-opacity:1"
           id="path978" /></g><g
         id="g980"><path
           d="m 128.008,166.23 120.609,95.008"
           style="fill:none;stroke:#000000;stroke-width:1.60158;stroke-linecap:butt;stroke-linejoin:miter;stroke-miterlimit:4;stroke-dasharray:none;stroke-opacity:1"
           id="path982" /></g><g
         id="g984"><path
           d="M 0.754,166.23 V 0.707"
           style="fill:none;stroke:#000000;stroke-width:1.41732;stroke-linecap:butt;stroke-linejoin:miter;stroke-miterlimit:4;stroke-dasharray:none;stroke-opacity:1"
           id="path986" /></g><g
         id="g988"><path
           d="M 128.008,166.23 V 0.707"
           style="fill:none;stroke:#000000;stroke-width:1.41732;stroke-linecap:butt;stroke-linejoin:miter;stroke-miterlimit:4;stroke-dasharray:none;stroke-opacity:1"
           id="path990" /></g><g
         id="g992"><path
           d="M 0.754,0.707 H 128.008"
           style="fill:none;stroke:#000000;stroke-width:1.41732;stroke-linecap:butt;stroke-linejoin:miter;stroke-miterlimit:4;stroke-dasharray:none;stroke-opacity:1"
           id="path994" /></g><g
         id="g996"><path
           d="M 64.379,71.457 V 0.707"
           style="fill:none;stroke:#000000;stroke-width:1.41732;stroke-linecap:butt;stroke-linejoin:miter;stroke-miterlimit:4;stroke-dasharray:none;stroke-opacity:1"
           id="path998" /></g><g
         id="g1000"><path
           d="m 64.379,71.457 120.613,95.008"
           style="fill:none;stroke:#000000;stroke-width:1.41732;stroke-linecap:butt;stroke-linejoin:miter;stroke-miterlimit:4;stroke-dasharray:none;stroke-opacity:1"
           id="path1002" /></g><g
         id="g1004"><path
           d="m 184.992,95.715 v 70.75"
           style="fill:none;stroke:#000000;stroke-width:1.41732;stroke-linecap:butt;stroke-linejoin:miter;stroke-miterlimit:4;stroke-dasharray:none;stroke-opacity:1"
           id="path1006" /></g><g
         id="g1008"><path
           d="M 184.992,95.715 64.379,0.707"
           style="fill:none;stroke:#000000;stroke-width:1.41732;stroke-linecap:butt;stroke-linejoin:miter;stroke-miterlimit:4;stroke-dasharray:none;stroke-opacity:1"
           id="path1010" /></g><g
         id="g1012"><path
           d="M 97.352,84.48 222.25,183.82"
           style="fill:none;stroke:#000000;stroke-width:1.31811;stroke-linecap:butt;stroke-linejoin:miter;stroke-miterlimit:4;stroke-dasharray:none;stroke-opacity:1"
           id="path1014" /></g><path
         d="m 72.3735,70.891438 c 0,3.638556 -3.144431,6.585228 -7.018572,6.585228 -3.871355,0 -7.004646,-2.946672 -7.004646,-6.585228 0,-3.647513 3.133291,-6.594184 7.004646,-6.594184 3.874141,0 7.018572,2.946671 7.018572,6.594184 z"
         style="fill:#f10000;fill-opacity:1;fill-rule:nonzero;stroke:none;stroke-width:2.49725"
         id="path1016" /><g
         id="g1018"><path
           d="m 797.105,13.191 -81.429,80.137 v 130.02 h 130.019 l 82.371,-81.43 h -45.433 v -83.52 c 0,-0.699 -0.563,-1.261 -1.262,-1.261 h -84.266 z"
           style="fill:none;stroke:#000000;stroke-width:1.72063;stroke-linecap:butt;stroke-linejoin:miter;stroke-miterlimit:4;stroke-dasharray:none;stroke-opacity:1"
           id="path1020" /></g><g
         id="g1022"><path
           d="M 797.105,57.137 H 752.453"
           style="fill:none;stroke:#000000;stroke-width:1.72063;stroke-linecap:butt;stroke-linejoin:miter;stroke-miterlimit:4;stroke-dasharray:none;stroke-opacity:1"
           id="path1024" /></g><g
         id="g1026"><path
           d="m 882.633,141.918 v 44.914"
           style="fill:none;stroke:#000000;stroke-width:1.72063;stroke-linecap:butt;stroke-linejoin:miter;stroke-miterlimit:4;stroke-dasharray:none;stroke-opacity:1"
           id="path1028" /></g><g
         id="g1030"><path
           d="m 797.105,57.137 v 84.781"
           style="fill:none;stroke:#000000;stroke-width:1.72063;stroke-linecap:butt;stroke-linejoin:miter;stroke-miterlimit:4;stroke-dasharray:none;stroke-opacity:1"
           id="path1032" /></g><g
         id="g1034"><path
           d="M 882.633,141.918 H 797.105"
           style="fill:none;stroke:#000000;stroke-width:1.72063;stroke-linecap:butt;stroke-linejoin:miter;stroke-miterlimit:4;stroke-dasharray:none;stroke-opacity:1"
           id="path1036" /></g><g
         id="g1038"><path
           d="M 221.355,110.848 H 330.223"
           style="fill:none;stroke:#000000;stroke-width:2.1685;stroke-linecap:butt;stroke-linejoin:miter;stroke-miterlimit:4;stroke-dasharray:none;stroke-opacity:1"
           id="path1040" /></g><g
         id="g1042"
         transform="scale(-1)"><path
           d="m -321.551,-110.848 4.336,-4.336 -15.18,4.336 15.18,4.336 z"
           style="fill:#000000;fill-opacity:1;fill-rule:evenodd;stroke:#000000;stroke-width:1.15654;stroke-linecap:butt;stroke-linejoin:miter;stroke-miterlimit:4;stroke-dasharray:none;stroke-opacity:1"
           id="path1044" /></g><path
         d="m 408.922,178.816 c 0,3.63856 -3.14443,6.58523 -7.01857,6.58523 -3.87136,0 -7.00465,-2.94667 -7.00465,-6.58523 0,-3.64751 3.13329,-6.59418 7.00465,-6.59418 3.87414,0 7.01857,2.94667 7.01857,6.59418 z"
         style="fill:#f10000;fill-opacity:1;fill-rule:nonzero;stroke:none;stroke-width:2.49725"
         id="path1016-3" /></g></g></svg>
