<?xml version="1.0" encoding="UTF-8" standalone="no"?>
<svg
   xmlns:dc="http://purl.org/dc/elements/1.1/"
   xmlns:cc="http://creativecommons.org/ns#"
   xmlns:rdf="http://www.w3.org/1999/02/22-rdf-syntax-ns#"
   xmlns:svg="http://www.w3.org/2000/svg"
   xmlns="http://www.w3.org/2000/svg"
   xmlns:sodipodi="http://sodipodi.sourceforge.net/DTD/sodipodi-0.dtd"
   xmlns:inkscape="http://www.inkscape.org/namespaces/inkscape"
   version="1.1"
   id="svg833"
   xml:space="preserve"
   width="2211.3535"
   height="421.45593"
   viewBox="0 0 2211.3535 421.45593"
   sodipodi:docname="h9.svg"
   inkscape:version="1.0.1 (3bc2e813f5, 2020-09-07)"><metadata
     id="metadata839"><rdf:RDF><cc:Work
         rdf:about=""><dc:format>image/svg+xml</dc:format><dc:type
           rdf:resource="http://purl.org/dc/dcmitype/StillImage" /><dc:title></dc:title></cc:Work></rdf:RDF></metadata><defs
     id="defs837"><marker
       style="overflow:visible"
       id="Arrow1Mend"
       refX="0"
       refY="0"
       orient="auto"
       inkscape:stockid="Arrow1Mend"
       inkscape:isstock="true"><path
         transform="matrix(-0.4,0,0,-0.4,-4,0)"
         style="fill:#000000;fill-opacity:1;fill-rule:evenodd;stroke:#000000;stroke-width:1pt;stroke-opacity:1"
         d="M 0,0 5,-5 -12.5,0 5,5 Z"
         id="path1121" /></marker><marker
       style="overflow:visible"
       id="Arrow1Mend-5"
       refX="0"
       refY="0"
       orient="auto"
       inkscape:stockid="Arrow1Mend"
       inkscape:isstock="true"><path
         transform="matrix(-0.4,0,0,-0.4,-4,0)"
         style="fill:#000000;fill-opacity:1;fill-rule:evenodd;stroke:#000000;stroke-width:1pt;stroke-opacity:1"
         d="M 0,0 5,-5 -12.5,0 5,5 Z"
         id="path1121-3" /></marker><marker
       style="overflow:visible"
       id="Arrow1Mend-5-6"
       refX="0"
       refY="0"
       orient="auto"
       inkscape:stockid="Arrow1Mend"
       inkscape:isstock="true"><path
         transform="matrix(-0.4,0,0,-0.4,-4,0)"
         style="fill:#000000;fill-opacity:1;fill-rule:evenodd;stroke:#000000;stroke-width:1pt;stroke-opacity:1"
         d="M 0,0 5,-5 -12.5,0 5,5 Z"
         id="path1121-3-2" /></marker></defs><sodipodi:namedview
     pagecolor="#ffffff"
     bordercolor="#666666"
     borderopacity="1"
     objecttolerance="10"
     gridtolerance="10"
     guidetolerance="10"
     inkscape:pageopacity="0"
     inkscape:pageshadow="2"
     inkscape:window-width="1918"
     inkscape:window-height="1053"
     id="namedview835"
     showgrid="false"
     inkscape:object-paths="true"
     inkscape:snap-intersection-paths="true"
     inkscape:snap-smooth-nodes="true"
     inkscape:zoom="0.51662875"
     inkscape:cx="808.40293"
     inkscape:cy="170.22135"
     inkscape:window-x="0"
     inkscape:window-y="25"
     inkscape:window-maximized="0"
     inkscape:current-layer="g841"
     inkscape:document-rotation="0" /><g
     id="g841"
     inkscape:groupmode="layer"
     inkscape:label="h9"
     transform="matrix(1.3333333,0,0,1.3333333,-79.912223,-224.48057)"><g
       id="g845"
       transform="translate(59.93337,-1.8912935)"><path
         d="m 205.051,172.277 c 1.594,60.989 49.496,109.567 108.043,109.571 58.551,0 106.457,-48.578 108.047,-109.571"
         style="fill:none;stroke:#000000;stroke-width:4.33381;stroke-linecap:butt;stroke-linejoin:miter;stroke-miterlimit:4;stroke-dasharray:none;stroke-opacity:1"
         id="path847" /></g><g
       id="g857"
       transform="translate(59.93337,-1.8912935)"><path
         d="m 421.141,172.277 -202.844,77.176 c -1.594,60.988 -49.5,109.57 -108.051,109.57 C 51.699,359.02 3.797,310.441 2.207,249.453 l 202.844,-77.176"
         style="fill:none;stroke:#000000;stroke-width:4.33381;stroke-linecap:butt;stroke-linejoin:miter;stroke-miterlimit:4;stroke-dasharray:none;stroke-opacity:1"
         id="path859" /></g><g
       id="g861"
       transform="translate(59.93337,-1.8912935)"><path
         d="m 134.469,356.82 c 47.672,-18.136 95.34,-36.273 143.011,-54.41 19.946,-7.59 39.891,-15.176 59.836,-22.765"
         style="fill:none;stroke:#000000;stroke-width:3.5996;stroke-linecap:butt;stroke-linejoin:miter;stroke-miterlimit:4;stroke-dasharray:none;stroke-opacity:1"
         id="path863" /></g><path
       d="m 283.89746,301.15056 c 0,-3 2.293,-5.449 5.156,-5.496 2.86,-0.047 5.231,2.32 5.321,5.32 0.089,3 -2.129,5.524 -4.985,5.668 -2.859,0.145 -5.301,-2.144 -5.484,-5.14"
       style="fill:#eb1815;fill-opacity:1;fill-rule:nonzero;stroke:none"
       id="path869" /><g
       id="g883"
       transform="translate(280.43337,-1.8912935)" /><path
       style="fill:none;stroke:#000000;stroke-width:1.31811;stroke-linecap:butt;stroke-linejoin:miter;stroke-miterlimit:4;stroke-dasharray:none;stroke-opacity:1"
       d="m 150.36711,355.24105 204.6029,-76.8518"
       id="path1073"
       sodipodi:nodetypes="cc" /><path
       style="fill:none;stroke:#000000;stroke-width:2.73543;stroke-linecap:butt;stroke-linejoin:miter;stroke-miterlimit:4;stroke-dasharray:none;stroke-opacity:1"
       d="M 150.3671,355.24105 V 483.17201"
       id="path1075" /><path
       style="fill:none;stroke:#000000;stroke-width:2.73543;stroke-linecap:butt;stroke-linejoin:miter;stroke-miterlimit:4;stroke-dasharray:none;stroke-opacity:1"
       d="m 354.97,406.32021 -204.6029,76.8518"
       id="path1073-3" /><path
       style="fill:none;stroke:#000000;stroke-width:2.73543;stroke-linecap:butt;stroke-linejoin:miter;stroke-miterlimit:4;stroke-dasharray:none;stroke-opacity:1"
       d="M 354.97001,406.32021 V 278.38925"
       id="path1075-6" /><path
       d="m 729.92632,296.68641 c 0,-3 2.293,-5.449 5.15598,-5.496 2.86,-0.047 5.231,2.32 5.321,5.32 0.089,3 -2.129,5.524 -4.985,5.668 -2.85898,0.145 -5.30098,-2.144 -5.48398,-5.14"
       style="fill:#eb1815;fill-opacity:1;fill-rule:nonzero;stroke:none;stroke-width:0.999998"
       id="path869-7"
       inkscape:transform-center-x="147.07035"
       inkscape:transform-center-y="7.2698514" /><path
       style="fill:none;stroke:#000000;stroke-width:2.1685;stroke-linecap:butt;stroke-linejoin:miter;stroke-miterlimit:4;stroke-dasharray:none;stroke-opacity:1;marker-end:url(#Arrow1Mend)"
       d="M 395.68804,334.70877 H 543.03715"
       id="path1110" /><rect
       style="fill:#000000;fill-opacity:0.15;stroke:#000000;stroke-width:2.39882;stroke-miterlimit:4;stroke-dasharray:none;stroke-opacity:1"
       id="rect1406"
       width="225.87953"
       height="154.34935"
       x="831.04773"
       y="294.45474"
       transform="matrix(1,0,-0.57636985,0.81718896,0,0)" /><rect
       style="fill:#000000;fill-opacity:0.15;stroke:#000000;stroke-width:2.1685;stroke-miterlimit:4;stroke-dasharray:none;stroke-opacity:1"
       id="rect1417"
       width="226.38776"
       height="154.13348"
       x="621.91656"
       y="296.51041" /><path
       style="fill:none;stroke:#000000;stroke-width:2.1685;stroke-linecap:butt;stroke-linejoin:miter;stroke-miterlimit:4;stroke-dasharray:none;stroke-opacity:1;marker-end:url(#Arrow1Mend-5)"
       d="m 876.615,334.70877 h 147.3491"
       id="path1110-5" /><path
       style="fill:none;stroke:#000000;stroke-width:1.60157;stroke-linecap:butt;stroke-linejoin:miter;stroke-miterlimit:4;stroke-dasharray:none;stroke-opacity:1"
       d="m 1081.6586,299.05811 v 154.13348 h 226.3877 l -0.5082,-154.13348 39.4163,-55.88525 h -225.8795 l -88.9623,126.13257 h 225.8795 l 49.546,-70.24732"
       id="path1536" /><path
       style="fill:none;stroke:#000000;stroke-width:2.1685;stroke-linecap:butt;stroke-linejoin:miter;stroke-miterlimit:4;stroke-dasharray:none;stroke-opacity:1;marker-end:url(#Arrow1Mend-5-6)"
       d="m 1333.4813,334.70877 h 147.3491"
       id="path1110-5-9" /><path
       style="fill:none;stroke:#000000;stroke-width:1.88504;stroke-linecap:butt;stroke-linejoin:miter;stroke-miterlimit:4;stroke-dasharray:none;stroke-opacity:1"
       d="m 1515.0542,276.89414 h 202.4526 v 163.26997"
       id="path1637" /><path
       style="fill:none;stroke:#000000;stroke-width:1.88504;stroke-linecap:butt;stroke-linejoin:miter;stroke-miterlimit:4;stroke-dasharray:none;stroke-opacity:1"
       d="M 1717.5068,440.16411 H 1515.0542 V 276.89414"
       id="path1637-1" /><path
       style="fill:none;stroke:#000000;stroke-width:1.88504;stroke-linecap:butt;stroke-linejoin:miter;stroke-miterlimit:4;stroke-dasharray:none;stroke-opacity:1"
       d="m 1515.0542,361.32548 h 202.4526"
       id="path1654" /><ellipse
       style="fill:#ff2323;fill-opacity:0.999062;stroke:none;stroke-width:1.88504"
       id="path996"
       cx="287.39087"
       cy="302.71167"
       rx="9.4985991"
       ry="9.9309082" /><ellipse
       style="fill:#ff2323;fill-opacity:0.999062;stroke:none;stroke-width:1.88504"
       id="path996-3"
       cx="737.40332"
       cy="295.94131"
       rx="9.4985991"
       ry="9.9309082" /></g></svg>
