<?xml version="1.0" encoding="UTF-8" standalone="no"?>
<svg
   xmlns:dc="http://purl.org/dc/elements/1.1/"
   xmlns:cc="http://creativecommons.org/ns#"
   xmlns:rdf="http://www.w3.org/1999/02/22-rdf-syntax-ns#"
   xmlns:svg="http://www.w3.org/2000/svg"
   xmlns="http://www.w3.org/2000/svg"
   xmlns:sodipodi="http://sodipodi.sourceforge.net/DTD/sodipodi-0.dtd"
   xmlns:inkscape="http://www.inkscape.org/namespaces/inkscape"
   width="209.53307mm"
   height="77.679024mm"
   viewBox="0 0 209.53307 77.679024"
   version="1.1"
   id="svg8"
   inkscape:version="1.0.1 (3bc2e813f5, 2020-09-07)"
   sodipodi:docname="tk2.svg">
  <defs
     id="defs2">
    <marker
       style="overflow:visible"
       id="Arrow1Mend"
       refX="0"
       refY="0"
       orient="auto"
       inkscape:stockid="Arrow1Mend"
       inkscape:isstock="true">
      <path
         transform="matrix(-0.4,0,0,-0.4,-4,0)"
         style="fill:#000000;fill-opacity:1;fill-rule:evenodd;stroke:#000000;stroke-width:1pt;stroke-opacity:1"
         d="M 0,0 5,-5 -12.5,0 5,5 Z"
         id="path1102" />
    </marker>
    <inkscape:path-effect
       effect="spiro"
       id="path-effect1028"
       is_visible="true"
       lpeversion="1" />
    <inkscape:path-effect
       effect="spiro"
       id="path-effect1026"
       is_visible="true"
       lpeversion="1" />
    <inkscape:path-effect
       effect="spiro"
       id="path-effect1024"
       is_visible="true"
       lpeversion="1" />
    <inkscape:path-effect
       effect="spiro"
       id="path-effect865"
       is_visible="true"
       lpeversion="1" />
    <inkscape:path-effect
       effect="spiro"
       id="path-effect861"
       is_visible="true"
       lpeversion="1" />
    <inkscape:path-effect
       effect="spiro"
       id="path-effect857"
       is_visible="true"
       lpeversion="1" />
  </defs>
  <sodipodi:namedview
     id="base"
     pagecolor="#ffffff"
     bordercolor="#666666"
     borderopacity="1.0"
     inkscape:pageopacity="0.0"
     inkscape:pageshadow="2"
     inkscape:zoom="0.98994949"
     inkscape:cx="761.29798"
     inkscape:cy="167.27502"
     inkscape:document-units="mm"
     inkscape:current-layer="layer1"
     inkscape:document-rotation="0"
     showgrid="false"
     inkscape:window-width="1918"
     inkscape:window-height="1053"
     inkscape:window-x="0"
     inkscape:window-y="25"
     inkscape:window-maximized="0" />
  <metadata
     id="metadata5">
    <rdf:RDF>
      <cc:Work
         rdf:about="">
        <dc:format>image/svg+xml</dc:format>
        <dc:type
           rdf:resource="http://purl.org/dc/dcmitype/StillImage" />
        <dc:title></dc:title>
      </cc:Work>
    </rdf:RDF>
  </metadata>
  <g
     inkscape:label="Layer 1"
     inkscape:groupmode="layer"
     id="layer1"
     transform="translate(-72.63097,-80.170643)">
    <rect
       style="fill:none;stroke:#000000;stroke-width:0.665;stroke-miterlimit:4;stroke-dasharray:none;stroke-opacity:1"
       id="rect853"
       width="81.373749"
       height="77.014023"
       x="72.96347"
       y="80.503143" />
    <path
       style="fill:none;stroke:#000000;stroke-width:0.264583px;stroke-linecap:butt;stroke-linejoin:miter;stroke-opacity:1"
       d="m 72.784428,125.05349 c 2.533674,3.31441 6.658122,5.35302 10.830028,5.35302 4.171906,0 8.296354,-2.03861 10.830028,-5.35302 0.960375,-1.25631 1.69798,-2.67397 2.692086,-3.90376 0.497053,-0.6149 1.060073,-1.18289 1.714394,-1.62676 0.654322,-0.44387 1.404036,-0.76094 2.189616,-0.85054 1.08124,-0.12332 2.18088,0.19095 3.12684,0.72896 0.94596,0.53801 1.75302,1.28988 2.4932,2.08765 0.74018,0.79777 1.42283,1.64811 2.17824,2.43147 0.75541,0.78336 1.5936,1.50554 2.56906,1.98801 1.51151,0.7476 3.2416,0.87265 4.91565,1.07549 0.83702,0.10141 1.6746,0.22608 2.48348,0.46398 0.80888,0.2379 1.59185,0.59305 2.25024,1.11975 1.25352,1.00279 1.94953,2.52333 2.84443,3.85602 0.44745,0.66634 0.95916,1.30104 1.60008,1.78421 0.64092,0.48316 1.42313,0.80766 2.22571,0.79849 0.71272,-0.008 1.40566,-0.27824 1.99638,-0.67709 0.59072,-0.39885 1.08735,-0.92216 1.53816,-1.47425 0.90163,-1.10417 1.66619,-2.36542 2.84318,-3.16967 0.68615,-0.46885 1.48253,-0.75776 2.29435,-0.93543 0.81181,-0.17767 1.64285,-0.24804 2.47157,-0.30999 5.10328,-0.38149 10.22921,-0.45972 15.34175,-0.23413"
       id="path855"
       inkscape:path-effect="#path-effect857"
       inkscape:original-d="m 72.784428,125.05349 c 7.220282,2.6e-4 14.440301,2.6e-4 21.660056,0 7.219756,-2.7e-4 4.39766,-4.25378 6.596096,-6.38106 2.19843,-2.12729 6.91182,4.82433 10.36734,7.23609 3.45551,2.41177 6.43318,1.77308 9.64937,2.65922 3.21619,0.88614 4.44708,4.29274 6.67022,6.43872 2.22314,2.14597 4.25208,-3.54707 6.37772,-5.32101 2.12564,-1.77393 3.17755,-0.83001 4.76592,-1.24542 1.58838,-0.4154 10.2281,-0.15582 15.34175,-0.23413" />
    <path
       style="fill:none;stroke:#000000;stroke-width:0.264583px;stroke-linecap:butt;stroke-linejoin:miter;stroke-opacity:1"
       d="m 101.58684,124.58139 c -1.10227,0.026 -2.188496,0.48617 -2.974055,1.25984 -0.785559,0.77367 -1.262205,1.85276 -1.305039,2.9545 -0.03141,0.80796 0.166175,1.62359 0.563868,2.3276 0.397692,0.70401 0.994269,1.29425 1.702489,1.68439 0.708217,0.39015 1.525907,0.57901 2.333487,0.53897 0.80758,-0.04 1.60258,-0.30887 2.26873,-0.76716 0.77164,-0.53087 1.36553,-1.31556 1.66685,-2.20239 0.30132,-0.88682 0.30842,-1.8709 0.0199,-2.76198 -0.2885,-0.89108 -0.871,-1.68426 -1.63491,-2.22621 -0.7639,-0.54194 -1.70499,-0.82967 -2.64135,-0.80756 z"
       id="path859"
       inkscape:path-effect="#path-effect861"
       inkscape:original-d="m 101.58684,124.58139 c -0.86343,-2.66632 -2.852466,2.80983 -4.279094,4.21434 -1.42663,1.40452 4.579314,2.5228 6.868574,3.7838 2.28926,1.261 -1.72605,-5.33183 -2.58948,-7.99814 z" />
    <path
       style="fill:none;stroke:#000000;stroke-width:0.264583px;stroke-linecap:butt;stroke-linejoin:miter;stroke-opacity:1"
       d="m 121.1676,128.35015 c 0.16637,-1.52266 0.80284,-2.99067 1.80053,-4.1529 0.99769,-1.16224 2.35235,-2.01373 3.83224,-2.40883 2.12829,-0.5682 4.49703,-0.15931 6.31166,1.08952 1.81463,1.24883 3.04266,3.31525 3.27217,5.50609"
       id="path863"
       inkscape:path-effect="#path-effect865"
       inkscape:original-d="m 121.1676,128.35015 c 1.87785,-2.18698 3.75544,-4.37422 5.63277,-6.56173 1.87733,-2.18751 6.38948,4.39734 9.58383,6.59561" />
    <path
       style="fill:none;stroke:#000000;stroke-width:0;stroke-miterlimit:4;stroke-dasharray:none;stroke-opacity:1"
       d="m 80.686293,129.76484 c -2.539418,-0.63688 -4.643685,-1.81688 -6.481286,-3.63448 l -0.868626,-0.85918 V 103.11952 80.967868 h 40.224069 40.22406 l -4e-5,23.452902 -4e-5,23.4529 -5.27853,0.008 c -2.9032,0.004 -6.74537,0.10156 -8.53817,0.21571 l -3.25965,0.20752 -0.3016,-1.15114 c -0.35858,-1.36861 -1.35075,-2.9599 -2.49999,-4.00955 -1.67556,-1.5304 -4.97781,-2.22429 -7.3927,-1.55341 -2.42587,0.67394 -4.69354,2.96074 -5.3487,5.39382 l -0.26665,0.99025 -0.99571,-0.41604 c -0.54765,-0.22882 -2.42962,-0.64613 -4.18216,-0.92736 -4.08415,-0.65539 -5.0756,-1.19716 -8.01248,-4.37839 -2.80964,-3.04341 -4.48309,-4.00833 -6.59898,-3.80502 -1.871361,0.17981 -3.27193,1.23864 -5.05482,3.82143 -1.987214,2.87879 -4.60969,5.47351 -6.414468,6.34659 -3.013409,1.45776 -6.127774,1.85728 -8.953529,1.14858 z"
       id="path867" />
    <path
       style="fill:none;stroke:#000000;stroke-width:0;stroke-miterlimit:4;stroke-dasharray:none;stroke-opacity:1"
       d="m 80.686293,129.76484 c -2.539418,-0.63688 -4.643685,-1.81688 -6.481286,-3.63448 l -0.868626,-0.85918 V 103.11952 80.967868 h 40.224069 40.22406 l -4e-5,23.452902 -4e-5,23.4529 -5.27853,0.008 c -2.9032,0.004 -6.74537,0.10156 -8.53817,0.21571 l -3.25965,0.20752 -0.3016,-1.15114 c -0.35858,-1.36861 -1.35075,-2.9599 -2.49999,-4.00955 -1.67556,-1.5304 -4.97781,-2.22429 -7.3927,-1.55341 -2.42587,0.67394 -4.69354,2.96074 -5.3487,5.39382 l -0.26665,0.99025 -0.99571,-0.41604 c -0.54765,-0.22882 -2.42962,-0.64613 -4.18216,-0.92736 -4.08415,-0.65539 -5.0756,-1.19716 -8.01248,-4.37839 -2.80964,-3.04341 -4.48309,-4.00833 -6.59898,-3.80502 -1.871361,0.17981 -3.27193,1.23864 -5.05482,3.82143 -1.987214,2.87879 -4.60969,5.47351 -6.414468,6.34659 -3.013409,1.45776 -6.127774,1.85728 -8.953529,1.14858 z"
       id="path869" />
    <path
       style="fill:none;stroke:#000000;stroke-width:0;stroke-miterlimit:4;stroke-dasharray:none;stroke-opacity:1"
       d="m 80.686293,129.76484 c -2.539418,-0.63688 -4.643685,-1.81688 -6.481286,-3.63448 l -0.868626,-0.85918 V 103.11952 80.967868 h 40.224069 40.22406 l -4e-5,23.452902 -4e-5,23.4529 -5.27853,0.008 c -2.9032,0.004 -6.74537,0.10156 -8.53817,0.21571 l -3.25965,0.20752 -0.3016,-1.15114 c -0.35858,-1.36861 -1.35075,-2.9599 -2.49999,-4.00955 -1.67556,-1.5304 -4.97781,-2.22429 -7.3927,-1.55341 -2.42587,0.67394 -4.69354,2.96074 -5.3487,5.39382 l -0.26665,0.99025 -0.99571,-0.41604 c -0.54765,-0.22882 -2.42962,-0.64613 -4.18216,-0.92736 -4.08415,-0.65539 -5.0756,-1.19716 -8.01248,-4.37839 -2.80964,-3.04341 -4.48309,-4.00833 -6.59898,-3.80502 -1.871361,0.17981 -3.27193,1.23864 -5.05482,3.82143 -1.987214,2.87879 -4.60969,5.47351 -6.414468,6.34659 -3.013409,1.45776 -6.127774,1.85728 -8.953529,1.14858 z"
       id="path871" />
    <path
       style="fill:none;stroke:#000000;stroke-width:0;stroke-miterlimit:4;stroke-dasharray:none;stroke-opacity:1"
       d="M 73.336381,141.73949 V 126.3393 l 1.135896,0.92326 c 2.979555,2.42179 5.452772,3.28824 9.287617,3.25376 5.47225,-0.0492 8.663199,-1.98422 12.511688,-7.58714 3.612854,-5.25986 6.403838,-5.30258 11.115108,-0.17011 2.87774,3.13502 4.03745,3.78791 7.68613,4.32712 4.89577,0.72352 5.65498,1.11253 7.47831,3.8318 2.29462,3.42213 3.36864,4.30642 5.22815,4.30459 1.42253,-0.001 2.47067,-0.73267 4.37402,-3.05171 1.93298,-2.35515 3.05124,-2.99063 5.88076,-3.34191 2.99453,-0.37176 11.95852,-0.65065 13.97435,-0.43477 l 1.7761,0.1902 v 14.27765 14.27764 H 113.56045 73.336381 Z m 30.223289,-8.56035 c 1.64662,-0.65885 2.65086,-2.1877 2.65086,-4.03565 0,-2.93188 -1.7304,-4.73542 -4.54341,-4.73542 -1.18002,0 -1.738613,0.14821 -2.484254,0.65913 -2.90236,1.98873 -2.715019,6.41102 0.336844,7.95141 1.41562,0.71451 2.54342,0.75933 4.03996,0.16053 z"
       id="path873" />
    <path
       style="fill:none;stroke:#000000;stroke-width:0;stroke-miterlimit:4;stroke-dasharray:none;stroke-opacity:1"
       d="m 99.929698,132.54439 c -1.442485,-0.72943 -2.080125,-1.68577 -2.210787,-3.31574 -0.118761,-1.48153 0.474874,-2.68307 1.81615,-3.67599 1.662409,-1.23064 4.452859,-0.61453 5.596319,1.23562 1.20741,1.95364 0.43332,4.72858 -1.60983,5.77092 -1.31066,0.66864 -2.24794,0.66478 -3.591852,-0.0148 z"
       id="path875" />
    <path
       style="fill:none;stroke:#000000;stroke-width:0;stroke-miterlimit:4;stroke-dasharray:none;stroke-opacity:1"
       d="m 125.96122,134.07706 c -0.89699,-0.60448 -4.51877,-5.54304 -4.51371,-6.15477 0.006,-0.70006 1.30761,-3.05497 2.16008,-3.90744 0.49921,-0.49922 1.55368,-1.20342 2.34327,-1.56491 1.20479,-0.55157 1.72074,-0.63678 3.20887,-0.52995 2.20129,0.15802 3.63512,0.86239 5.06713,2.48925 1.16694,1.32571 2.23198,3.89426 1.68969,4.07503 -1.37745,0.45915 -2.79067,1.56319 -4.15989,3.24981 -2.44232,3.00847 -3.9209,3.60623 -5.79544,2.34298 z"
       id="path877" />
    <path
       style="fill:none;stroke:#000000;stroke-width:0;stroke-miterlimit:4;stroke-dasharray:none;stroke-opacity:1"
       d="m 80.686293,129.76484 c -2.539418,-0.63688 -4.643685,-1.81688 -6.481286,-3.63448 l -0.868626,-0.85918 V 103.11952 80.967868 h 40.224069 40.22406 l -4e-5,23.452902 -4e-5,23.4529 -5.27853,0.008 c -2.9032,0.004 -6.74537,0.10156 -8.53817,0.21571 l -3.25965,0.20752 -0.3016,-1.15114 c -0.35858,-1.36861 -1.35075,-2.9599 -2.49999,-4.00955 -1.67556,-1.5304 -4.97781,-2.22429 -7.3927,-1.55341 -2.42587,0.67394 -4.69354,2.96074 -5.3487,5.39382 l -0.26665,0.99025 -0.99571,-0.41604 c -0.54765,-0.22882 -2.42962,-0.64613 -4.18216,-0.92736 -4.08415,-0.65539 -5.0756,-1.19716 -8.01248,-4.37839 -2.80964,-3.04341 -4.48309,-4.00833 -6.59898,-3.80502 -1.871361,0.17981 -3.27193,1.23864 -5.05482,3.82143 -1.987214,2.87879 -4.60969,5.47351 -6.414468,6.34659 -3.013409,1.45776 -6.127774,1.85728 -8.953529,1.14858 z"
       id="path879" />
    <path
       style="fill:none;stroke:#000000;stroke-width:0;stroke-miterlimit:4;stroke-dasharray:none;stroke-opacity:1"
       d="m 80.686293,129.76484 c -2.539418,-0.63688 -4.643685,-1.81688 -6.481286,-3.63448 l -0.868626,-0.85918 V 103.11952 80.967868 h 40.224069 40.22406 l -4e-5,23.452902 -4e-5,23.4529 -5.27853,0.008 c -2.9032,0.004 -6.74537,0.10156 -8.53817,0.21571 l -3.25965,0.20752 -0.3016,-1.15114 c -0.35858,-1.36861 -1.35075,-2.9599 -2.49999,-4.00955 -1.67556,-1.5304 -4.97781,-2.22429 -7.3927,-1.55341 -2.42587,0.67394 -4.69354,2.96074 -5.3487,5.39382 l -0.26665,0.99025 -0.99571,-0.41604 c -0.54765,-0.22882 -2.42962,-0.64613 -4.18216,-0.92736 -4.08415,-0.65539 -5.0756,-1.19716 -8.01248,-4.37839 -2.80964,-3.04341 -4.48309,-4.00833 -6.59898,-3.80502 -1.871361,0.17981 -3.27193,1.23864 -5.05482,3.82143 -1.987214,2.87879 -4.60969,5.47351 -6.414468,6.34659 -3.013409,1.45776 -6.127774,1.85728 -8.953529,1.14858 z"
       id="path881" />
    <path
       style="fill:none;stroke:#000000;stroke-width:0;stroke-miterlimit:4;stroke-dasharray:none;stroke-opacity:1"
       d="m 80.686293,129.76484 c -2.539418,-0.63688 -4.643685,-1.81688 -6.481286,-3.63448 l -0.868626,-0.85918 V 103.11952 80.967868 h 40.224069 40.22406 l -4e-5,23.452902 -4e-5,23.4529 -5.27853,0.008 c -2.9032,0.004 -6.74537,0.10156 -8.53817,0.21571 l -3.25965,0.20752 -0.3016,-1.15114 c -0.35858,-1.36861 -1.35075,-2.9599 -2.49999,-4.00955 -1.67556,-1.5304 -4.97781,-2.22429 -7.3927,-1.55341 -2.42587,0.67394 -4.69354,2.96074 -5.3487,5.39382 l -0.26665,0.99025 -0.99571,-0.41604 c -0.54765,-0.22882 -2.42962,-0.64613 -4.18216,-0.92736 -4.08415,-0.65539 -5.0756,-1.19716 -8.01248,-4.37839 -2.80964,-3.04341 -4.48309,-4.00833 -6.59898,-3.80502 -1.871361,0.17981 -3.27193,1.23864 -5.05482,3.82143 -1.987214,2.87879 -4.60969,5.47351 -6.414468,6.34659 -3.013409,1.45776 -6.127774,1.85728 -8.953529,1.14858 z"
       id="path883" />
    <path
       style="fill:none;stroke:#000000;stroke-width:0;stroke-miterlimit:4;stroke-dasharray:none;stroke-opacity:1"
       d="m 80.31541,129.72303 c -1.882675,-0.50632 -4.300677,-1.809 -5.788167,-3.11834 l -1.190862,-1.04824 V 103.26216 80.967868 h 40.224069 40.22406 l -6e-5,23.452902 -5e-5,23.4529 -6.48123,0.0625 c -3.56468,0.0343 -7.41521,0.1605 -8.55675,0.28031 l -2.07551,0.21786 -0.29111,-1.08213 c -1.20688,-4.48627 -5.53664,-6.93196 -9.98348,-5.63923 -2.01749,0.5865 -4.45454,2.89596 -4.97201,4.71171 -0.45432,1.59413 -0.58729,1.69666 -1.55279,1.19738 -0.45815,-0.23692 -2.06557,-0.61416 -3.57204,-0.83831 -4.91199,-0.73087 -4.92443,-0.73727 -8.48533,-4.36231 -3.69264,-3.75916 -5.45132,-4.57834 -7.856856,-3.65966 -1.530821,0.58463 -2.696549,1.74861 -4.741688,4.73459 -1.736664,2.5356 -3.40424,4.07872 -5.62229,5.2027 -2.797358,1.41753 -6.354665,1.81014 -9.277906,1.02398 z"
       id="path885" />
    <path
       style="fill:none;stroke:#000000;stroke-width:0;stroke-miterlimit:4;stroke-dasharray:none;stroke-opacity:1"
       d="m 80.31541,129.72303 c -1.882675,-0.50632 -4.300677,-1.809 -5.788167,-3.11834 l -1.190862,-1.04824 V 103.26216 80.967868 h 40.224069 40.22406 l -6e-5,23.452902 -5e-5,23.4529 -6.48123,0.0625 c -3.56468,0.0343 -7.41521,0.1605 -8.55675,0.28031 l -2.07551,0.21786 -0.29111,-1.08213 c -1.20688,-4.48627 -5.53664,-6.93196 -9.98348,-5.63923 -2.01749,0.5865 -4.45454,2.89596 -4.97201,4.71171 -0.45432,1.59413 -0.58729,1.69666 -1.55279,1.19738 -0.45815,-0.23692 -2.06557,-0.61416 -3.57204,-0.83831 -4.91199,-0.73087 -4.92443,-0.73727 -8.48533,-4.36231 -3.69264,-3.75916 -5.45132,-4.57834 -7.856856,-3.65966 -1.530821,0.58463 -2.696549,1.74861 -4.741688,4.73459 -1.736664,2.5356 -3.40424,4.07872 -5.62229,5.2027 -2.797358,1.41753 -6.354665,1.81014 -9.277906,1.02398 z"
       id="path887" />
    <path
       style="fill:none;stroke:#000000;stroke-width:0;stroke-miterlimit:4;stroke-dasharray:none;stroke-opacity:1"
       d="m 80.31541,129.72303 c -1.882675,-0.50632 -4.300677,-1.809 -5.788167,-3.11834 l -1.190862,-1.04824 V 103.26216 80.967868 h 40.224069 40.22406 l -6e-5,23.452902 -5e-5,23.4529 -6.48123,0.0625 c -3.56468,0.0343 -7.41521,0.1605 -8.55675,0.28031 l -2.07551,0.21786 -0.29111,-1.08213 c -1.20688,-4.48627 -5.53664,-6.93196 -9.98348,-5.63923 -2.01749,0.5865 -4.45454,2.89596 -4.97201,4.71171 -0.45432,1.59413 -0.58729,1.69666 -1.55279,1.19738 -0.45815,-0.23692 -2.06557,-0.61416 -3.57204,-0.83831 -4.91199,-0.73087 -4.92443,-0.73727 -8.48533,-4.36231 -3.69264,-3.75916 -5.45132,-4.57834 -7.856856,-3.65966 -1.530821,0.58463 -2.696549,1.74861 -4.741688,4.73459 -1.736664,2.5356 -3.40424,4.07872 -5.62229,5.2027 -2.797358,1.41753 -6.354665,1.81014 -9.277906,1.02398 z"
       id="path889" />
    <path
       style="fill:none;stroke:#000000;stroke-width:0;stroke-miterlimit:4;stroke-dasharray:none;stroke-opacity:1"
       d="m 80.31541,129.72303 c -1.882675,-0.50632 -4.300677,-1.809 -5.788167,-3.11834 l -1.190862,-1.04824 V 103.26216 80.967868 h 40.224069 40.22406 l -6e-5,23.452902 -5e-5,23.4529 -6.48123,0.0625 c -3.56468,0.0343 -7.41521,0.1605 -8.55675,0.28031 l -2.07551,0.21786 -0.29111,-1.08213 c -1.20688,-4.48627 -5.53664,-6.93196 -9.98348,-5.63923 -2.01749,0.5865 -4.45454,2.89596 -4.97201,4.71171 -0.45432,1.59413 -0.58729,1.69666 -1.55279,1.19738 -0.45815,-0.23692 -2.06557,-0.61416 -3.57204,-0.83831 -4.91199,-0.73087 -4.92443,-0.73727 -8.48533,-4.36231 -3.69264,-3.75916 -5.45132,-4.57834 -7.856856,-3.65966 -1.530821,0.58463 -2.696549,1.74861 -4.741688,4.73459 -1.736664,2.5356 -3.40424,4.07872 -5.62229,5.2027 -2.797358,1.41753 -6.354665,1.81014 -9.277906,1.02398 z"
       id="path891" />
    <path
       style="fill:none;stroke:#000000;stroke-width:0;stroke-miterlimit:4;stroke-dasharray:none;stroke-opacity:1"
       d="m 99.801391,132.6325 c -2.024957,-1.05049 -2.814757,-3.92189 -1.61843,-5.88395 0.735526,-1.20631 2.471979,-2.04169 3.907569,-1.87988 3.76712,0.42461 5.00193,5.20519 1.93494,7.49115 -1.00647,0.75016 -3.04946,0.88205 -4.224079,0.27268 z"
       id="path893" />
    <path
       style="fill:none;stroke:#000000;stroke-width:0;stroke-miterlimit:4;stroke-dasharray:none;stroke-opacity:1"
       d="m 82.044092,130.0817 c -1.625825,-0.21226 -2.613787,-0.50088 -4.136583,-1.20845 -1.443392,-0.67068 -3.388665,-2.0602 -4.148702,-2.96345 l -0.481506,-0.57224 v -22.1916 -22.191599 h 40.348959 40.34896 l -9e-5,23.481769 -8e-5,23.48177 -5.90579,0.0196 c -5.28167,0.0176 -10.38573,0.2754 -11.36287,0.57402 -0.23713,0.0725 -0.31,0.0365 -0.22022,-0.1088 0.23978,-0.38797 -0.62073,-2.73947 -1.40145,-3.82974 -0.90327,-1.26139 -2.63072,-2.48098 -4.13251,-2.91756 -1.64328,-0.47772 -3.97475,-0.28149 -5.54187,0.46643 -2.04954,0.97815 -3.92713,3.32645 -4.24398,5.30794 -0.1397,0.87364 -0.12904,0.8659 -0.69593,0.50535 -0.79341,-0.50463 -2.29334,-0.88869 -4.87088,-1.24723 -2.60686,-0.36261 -3.76857,-0.69565 -4.80811,-1.37839 -0.31183,-0.2048 -1.75759,-1.58346 -3.2128,-3.0637 -3.08998,-3.14312 -4.0755,-3.75627 -6.02747,-3.75004 -2.205204,0.007 -3.80374,1.27478 -6.297977,4.99471 -0.784656,1.17025 -1.860521,2.47535 -2.596489,3.14973 -2.784451,2.55145 -6.988183,3.91463 -10.612612,3.44145 z"
       id="path895" />
    <path
       style="fill:none;stroke:#000000;stroke-width:0;stroke-miterlimit:4;stroke-dasharray:none;stroke-opacity:1"
       d="m 82.044092,130.0817 c -1.625825,-0.21226 -2.613787,-0.50088 -4.136583,-1.20845 -1.443392,-0.67068 -3.388665,-2.0602 -4.148702,-2.96345 l -0.481506,-0.57224 v -22.1916 -22.191599 h 40.348959 40.34896 l -9e-5,23.481769 -8e-5,23.48177 -5.90579,0.0196 c -5.28167,0.0176 -10.38573,0.2754 -11.36287,0.57402 -0.23713,0.0725 -0.31,0.0365 -0.22022,-0.1088 0.23978,-0.38797 -0.62073,-2.73947 -1.40145,-3.82974 -0.90327,-1.26139 -2.63072,-2.48098 -4.13251,-2.91756 -1.64328,-0.47772 -3.97475,-0.28149 -5.54187,0.46643 -2.04954,0.97815 -3.92713,3.32645 -4.24398,5.30794 -0.1397,0.87364 -0.12904,0.8659 -0.69593,0.50535 -0.79341,-0.50463 -2.29334,-0.88869 -4.87088,-1.24723 -2.60686,-0.36261 -3.76857,-0.69565 -4.80811,-1.37839 -0.31183,-0.2048 -1.75759,-1.58346 -3.2128,-3.0637 -3.08998,-3.14312 -4.0755,-3.75627 -6.02747,-3.75004 -2.205204,0.007 -3.80374,1.27478 -6.297977,4.99471 -0.784656,1.17025 -1.860521,2.47535 -2.596489,3.14973 -2.784451,2.55145 -6.988183,3.91463 -10.612612,3.44145 z"
       id="path897" />
    <path
       style="fill:none;stroke:#000000;stroke-width:0;stroke-miterlimit:4;stroke-dasharray:none;stroke-opacity:1"
       d="m 126.7014,134.63315 c -1.00089,-0.31803 -1.82483,-1.15557 -3.22036,-3.2735 -0.76788,-1.16536 -1.56568,-2.27044 -1.7729,-2.45573 -0.32792,-0.29323 -0.35527,-0.45245 -0.21099,-1.22842 0.39519,-2.1254 2.15067,-4.30202 4.2711,-5.29573 0.95358,-0.44688 1.31941,-0.50949 2.97706,-0.50949 1.73239,0 1.99579,0.0502 3.16078,0.60205 0.72975,0.3457 1.62972,0.97125 2.1136,1.46912 0.86456,0.88957 2.00166,2.90431 2.00166,3.54659 0,0.19812 0.0814,0.51234 0.18092,0.69827 0.15268,0.28527 0.0715,0.37083 -0.51972,0.548 -1.31513,0.39408 -2.44369,1.30009 -3.90343,3.13368 -1.95623,2.45725 -3.46353,3.27808 -5.07772,2.76516 z"
       id="path899" />
    <path
       style="fill:none;stroke:#000000;stroke-width:0;stroke-miterlimit:4;stroke-dasharray:none;stroke-opacity:1"
       d="m 73.277301,141.71403 c 0,-8.47139 0.04706,-15.40253 0.104576,-15.40253 0.05752,0 0.67409,0.45549 1.370163,1.0122 1.578836,1.26272 2.600241,1.84457 4.294228,2.44624 4.304188,1.52875 8.852148,0.87156 12.628332,-1.82482 1.565899,-1.11812 2.633872,-2.29704 4.221499,-4.66005 1.429411,-2.12753 2.884273,-3.63419 3.931959,-4.07194 1.037442,-0.43347 2.672832,-0.34423 3.876322,0.21151 0.81052,0.37428 1.64296,1.09983 3.77977,3.2944 3.42775,3.52041 3.88123,3.76671 8.02063,4.35635 4.65433,0.663 5.38724,1.09413 7.61221,4.4778 1.87487,2.85127 3.22613,3.82261 4.98884,3.58618 1.2636,-0.16949 2.34586,-0.97643 3.85939,-2.87758 2.10639,-2.64586 2.84072,-3.09445 5.70687,-3.48625 2.03655,-0.27839 10.56552,-0.5469 13.70454,-0.43144 l 2.59859,0.0956 v 14.33844 14.33844 H 113.62626 73.277301 Z m 29.886869,-8.44031 c 1.73606,-0.52014 3.03486,-2.35242 3.03486,-4.28144 0,-1.88877 -0.91239,-3.34615 -2.58142,-4.12335 -1.6596,-0.77281 -3.4473,-0.54493 -4.798538,0.61168 -1.158732,0.99183 -1.620795,1.98299 -1.620795,3.47673 0,1.40484 0.411824,2.36528 1.434116,3.34455 1.172676,1.12334 2.835727,1.47998 4.531777,0.97183 z"
       id="path901" />
    <path
       style="fill:none;stroke:#000000;stroke-width:0;stroke-miterlimit:4;stroke-dasharray:none;stroke-opacity:1"
       d="m 100.01912,132.76249 c -2.547774,-1.16035 -3.279067,-4.46739 -1.439175,-6.50819 1.574865,-1.74684 3.997725,-1.93447 5.799675,-0.44916 1.8306,1.50894 1.90162,4.54627 0.14527,6.21323 -1.15267,1.094 -3.04966,1.40728 -4.50577,0.74412 z"
       id="path903" />
    <path
       style="fill:#000000;fill-opacity:0.151391;stroke:#000000;stroke-width:0;stroke-miterlimit:4;stroke-dasharray:none;stroke-opacity:1"
       d="m 73.277301,141.71403 c 0,-8.47139 0.04706,-15.40253 0.104576,-15.40253 0.05752,0 0.67409,0.45549 1.370163,1.0122 1.578836,1.26272 2.600241,1.84457 4.294228,2.44624 4.304188,1.52875 8.852148,0.87156 12.628332,-1.82482 1.565899,-1.11812 2.633872,-2.29704 4.221499,-4.66005 1.429411,-2.12753 2.884273,-3.63419 3.931959,-4.07194 1.037442,-0.43347 2.672832,-0.34423 3.876322,0.21151 0.81052,0.37428 1.64296,1.09983 3.77977,3.2944 3.42775,3.52041 3.88123,3.76671 8.02063,4.35635 4.65433,0.663 5.38724,1.09413 7.61221,4.4778 1.87487,2.85127 3.22613,3.82261 4.98884,3.58618 1.2636,-0.16949 2.34586,-0.97643 3.85939,-2.87758 2.10639,-2.64586 2.84072,-3.09445 5.70687,-3.48625 2.03655,-0.27839 10.56552,-0.5469 13.70454,-0.43144 l 2.59859,0.0956 v 14.33844 14.33844 H 113.62626 73.277301 Z m 29.886869,-8.44031 c 1.73606,-0.52014 3.03486,-2.35242 3.03486,-4.28144 0,-1.88877 -0.91239,-3.34615 -2.58142,-4.12335 -1.6596,-0.77281 -3.4473,-0.54493 -4.798538,0.61168 -1.158732,0.99183 -1.620795,1.98299 -1.620795,3.47673 0,1.40484 0.411824,2.36528 1.434116,3.34455 1.172676,1.12334 2.835727,1.47998 4.531777,0.97183 z"
       id="path905" />
    <path
       style="fill:#000000;fill-opacity:0.151391;stroke:#000000;stroke-width:0;stroke-miterlimit:4;stroke-dasharray:none;stroke-opacity:1"
       d="m 82.044092,130.0817 c -1.625825,-0.21226 -2.613787,-0.50088 -4.136583,-1.20845 -1.443392,-0.67068 -3.388665,-2.0602 -4.148702,-2.96345 l -0.481506,-0.57224 v -22.1916 -22.191599 h 40.348959 40.34896 l -9e-5,23.481769 -8e-5,23.48177 -5.90579,0.0196 c -5.28167,0.0176 -10.38573,0.2754 -11.36287,0.57402 -0.23713,0.0725 -0.31,0.0365 -0.22022,-0.1088 0.23978,-0.38797 -0.62073,-2.73947 -1.40145,-3.82974 -0.90327,-1.26139 -2.63072,-2.48098 -4.13251,-2.91756 -1.64328,-0.47772 -3.97475,-0.28149 -5.54187,0.46643 -2.04954,0.97815 -3.92713,3.32645 -4.24398,5.30794 -0.1397,0.87364 -0.12904,0.8659 -0.69593,0.50535 -0.79341,-0.50463 -2.29334,-0.88869 -4.87088,-1.24723 -2.60686,-0.36261 -3.76857,-0.69565 -4.80811,-1.37839 -0.31183,-0.2048 -1.75759,-1.58346 -3.2128,-3.0637 -3.08998,-3.14312 -4.0755,-3.75627 -6.02747,-3.75004 -2.205204,0.007 -3.80374,1.27478 -6.297977,4.99471 -0.784656,1.17025 -1.860521,2.47535 -2.596489,3.14973 -2.784451,2.55145 -6.988183,3.91463 -10.612612,3.44145 z"
       id="path907" />
    <text
       xml:space="preserve"
       style="font-style:normal;font-weight:normal;font-size:10.5833px;line-height:1.25;font-family:sans-serif;fill:#000000;fill-opacity:1;stroke:none;stroke-width:0.264583"
       x="46.371189"
       y="135.15207"
       id="text911"><tspan
         sodipodi:role="line"
         id="tspan909"
         x="46.371189"
         y="135.15207"
         style="stroke-width:0.264583"></tspan></text>
    <path
       id="rect853-3"
       style="fill:none;stroke:#000000;stroke-width:0.651008;stroke-miterlimit:4;stroke-dasharray:none;stroke-opacity:1"
       d="m 200.42467,81.286308 h 81.38775 v 73.794282 h -81.38775 z" />
    <path
       style="fill:none;stroke:#000000;stroke-width:0.264583px;stroke-linecap:butt;stroke-linejoin:miter;stroke-opacity:1"
       d="m 200.72973,122.74304 c 2.53367,3.31441 6.65812,5.35302 10.83003,5.35302 4.1719,0 8.29635,-2.03861 10.83002,-5.35302 0.96038,-1.25631 1.69798,-2.67397 2.69209,-3.90376 0.49705,-0.6149 1.06007,-1.18289 1.71439,-1.62676 0.65433,-0.44387 1.40404,-0.76094 2.18962,-0.85054 1.08124,-0.12332 2.18088,0.19096 3.12684,0.72896 0.94596,0.53801 1.75302,1.28989 2.49319,2.08766 0.74018,0.79776 1.42283,1.6481 2.17824,2.43146 0.75541,0.78336 1.5936,1.50555 2.56906,1.98801 1.51151,0.7476 3.2416,0.87265 4.91565,1.07549 0.83702,0.10142 1.6746,0.22609 2.48348,0.46398 0.80888,0.2379 1.59185,0.59305 2.25024,1.11975 1.25352,1.00279 1.94953,2.52333 2.84443,3.85602 0.44745,0.66634 0.95916,1.30105 1.60008,1.78421 0.64092,0.48316 1.42313,0.80767 2.22571,0.79849 0.71272,-0.008 1.40566,-0.27824 1.99638,-0.67709 0.59072,-0.39885 1.08735,-0.92216 1.53816,-1.47425 0.90164,-1.10417 1.66619,-2.36541 2.84318,-3.16967 0.68615,-0.46885 1.48253,-0.75776 2.29435,-0.93543 0.81182,-0.17767 1.64286,-0.24804 2.47158,-0.30999 5.10328,-0.38148 10.22921,-0.45971 15.34175,-0.23413"
       id="path855-6" />
    <path
       style="fill:none;stroke:#000000;stroke-width:0.264583px;stroke-linecap:butt;stroke-linejoin:miter;stroke-opacity:1"
       d="m 229.53214,122.27094 c -1.10227,0.026 -2.1885,0.48617 -2.97406,1.25984 -0.78556,0.77367 -1.26221,1.85276 -1.30504,2.9545 -0.0314,0.80797 0.16617,1.62359 0.56387,2.3276 0.39769,0.70402 0.99427,1.29425 1.70249,1.6844 0.70822,0.39015 1.52591,0.57901 2.33349,0.53897 0.80758,-0.04 1.60258,-0.30887 2.26873,-0.76717 0.77164,-0.53087 1.36553,-1.31556 1.66685,-2.20239 0.30132,-0.88682 0.30842,-1.87089 0.0199,-2.76197 -0.28849,-0.89108 -0.871,-1.68426 -1.6349,-2.22621 -0.7639,-0.54195 -1.70499,-0.82968 -2.64135,-0.80757 z"
       id="path859-7" />
    <path
       style="fill:none;stroke:#000000;stroke-width:0.264583px;stroke-linecap:butt;stroke-linejoin:miter;stroke-opacity:1"
       d="m 249.11289,126.0397 c 0.16637,-1.52266 0.80284,-2.99067 1.80053,-4.1529 0.99769,-1.16223 2.35235,-2.01373 3.83224,-2.40883 2.12829,-0.5682 4.49703,-0.15931 6.31166,1.08952 1.81463,1.24883 3.04267,3.31525 3.27217,5.50609"
       id="path863-5" />
    <path
       style="fill:none;stroke:#000000;stroke-width:0;stroke-miterlimit:4;stroke-dasharray:none;stroke-opacity:1"
       d="m 208.15449,130.55501 c -2.53942,-0.63688 -4.64368,-1.81689 -6.48128,-3.63449 l -0.86863,-0.85917 V 103.90969 81.758035 h 40.22406 40.22406 l -4e-5,23.452895 -3e-5,23.4529 -5.27854,0.008 c -2.90319,0.004 -6.74537,0.10157 -8.53817,0.21571 l -3.25965,0.20753 -0.3016,-1.15115 c -0.35857,-1.3686 -1.35075,-2.95989 -2.49998,-4.00955 -1.67557,-1.53039 -4.97782,-2.22428 -7.3927,-1.5534 -2.42587,0.67394 -4.69355,2.96074 -5.34871,5.39382 l -0.26664,0.99022 -0.99572,-0.41604 c -0.54764,-0.22882 -2.42962,-0.64613 -4.18216,-0.92736 -4.08415,-0.65539 -5.0756,-1.19716 -8.01247,-4.37839 -2.80964,-3.04341 -4.48309,-4.00833 -6.59898,-3.80502 -1.87136,0.17981 -3.27193,1.23864 -5.05482,3.82143 -1.98722,2.87879 -4.60969,5.47351 -6.41447,6.34659 -3.01341,1.45776 -6.12777,1.85728 -8.95353,1.14858 z"
       id="path867-3" />
    <path
       style="fill:none;stroke:#000000;stroke-width:0;stroke-miterlimit:4;stroke-dasharray:none;stroke-opacity:1"
       d="m 208.15449,130.55501 c -2.53942,-0.63688 -4.64368,-1.81689 -6.48128,-3.63449 l -0.86863,-0.85917 V 103.90969 81.758035 h 40.22406 40.22406 l -4e-5,23.452895 -3e-5,23.4529 -5.27854,0.008 c -2.90319,0.004 -6.74537,0.10157 -8.53817,0.21571 l -3.25965,0.20753 -0.3016,-1.15115 c -0.35857,-1.3686 -1.35075,-2.95989 -2.49998,-4.00955 -1.67557,-1.53039 -4.97782,-2.22428 -7.3927,-1.5534 -2.42587,0.67394 -4.69355,2.96074 -5.34871,5.39382 l -0.26664,0.99022 -0.99572,-0.41604 c -0.54764,-0.22882 -2.42962,-0.64613 -4.18216,-0.92736 -4.08415,-0.65539 -5.0756,-1.19716 -8.01247,-4.37839 -2.80964,-3.04341 -4.48309,-4.00833 -6.59898,-3.80502 -1.87136,0.17981 -3.27193,1.23864 -5.05482,3.82143 -1.98722,2.87879 -4.60969,5.47351 -6.41447,6.34659 -3.01341,1.45776 -6.12777,1.85728 -8.95353,1.14858 z"
       id="path869-5" />
    <path
       style="fill:none;stroke:#000000;stroke-width:0;stroke-miterlimit:4;stroke-dasharray:none;stroke-opacity:1"
       d="m 208.15449,130.55501 c -2.53942,-0.63688 -4.64368,-1.81689 -6.48128,-3.63449 l -0.86863,-0.85917 V 103.90969 81.758035 h 40.22406 40.22406 l -4e-5,23.452895 -3e-5,23.4529 -5.27854,0.008 c -2.90319,0.004 -6.74537,0.10157 -8.53817,0.21571 l -3.25965,0.20753 -0.3016,-1.15115 c -0.35857,-1.3686 -1.35075,-2.95989 -2.49998,-4.00955 -1.67557,-1.53039 -4.97782,-2.22428 -7.3927,-1.5534 -2.42587,0.67394 -4.69355,2.96074 -5.34871,5.39382 l -0.26664,0.99022 -0.99572,-0.41604 c -0.54764,-0.22882 -2.42962,-0.64613 -4.18216,-0.92736 -4.08415,-0.65539 -5.0756,-1.19716 -8.01247,-4.37839 -2.80964,-3.04341 -4.48309,-4.00833 -6.59898,-3.80502 -1.87136,0.17981 -3.27193,1.23864 -5.05482,3.82143 -1.98722,2.87879 -4.60969,5.47351 -6.41447,6.34659 -3.01341,1.45776 -6.12777,1.85728 -8.95353,1.14858 z"
       id="path871-6" />
    <path
       style="fill:none;stroke:#000000;stroke-width:0;stroke-miterlimit:4;stroke-dasharray:none;stroke-opacity:1"
       d="m 201.28168,139.42904 v -15.40019 l 1.1359,0.92326 c 2.97955,2.42179 5.45277,3.28824 9.28761,3.25376 5.47225,-0.0492 8.6632,-1.98421 12.51169,-7.58713 3.61285,-5.25987 6.40384,-5.30258 11.1151,-0.17012 2.87774,3.13502 4.03746,3.78791 7.68613,4.32713 4.89578,0.72351 5.65499,1.11252 7.47832,3.83179 2.29461,3.42213 3.36863,4.30643 5.22814,4.30459 1.42254,-10e-4 2.47067,-0.73267 4.37402,-3.05171 1.93299,-2.35515 3.05124,-2.99063 5.88076,-3.3419 2.99454,-0.37176 11.95853,-0.65066 13.97435,-0.43478 l 1.7761,0.1902 v 14.27765 14.27765 h -40.22406 -40.22406 z m 30.22329,-8.56035 c 1.64661,-0.65884 2.65086,-2.18769 2.65086,-4.03565 0,-2.93188 -1.73041,-4.73541 -4.54342,-4.73541 -1.18001,0 -1.7386,0.14821 -2.48425,0.65913 -2.90236,1.98872 -2.71501,6.41102 0.33685,7.9514 1.41562,0.71452 2.54342,0.75933 4.03996,0.16053 z"
       id="path873-2" />
    <path
       style="fill:none;stroke:#000000;stroke-width:0;stroke-miterlimit:4;stroke-dasharray:none;stroke-opacity:1"
       d="m 227.875,130.23395 c -1.44249,-0.72944 -2.08013,-1.68577 -2.21079,-3.31575 -0.11876,-1.48152 0.47487,-2.68307 1.81615,-3.67599 1.66241,-1.23064 4.45285,-0.61453 5.59631,1.23563 1.20741,1.95363 0.43333,4.72857 -1.60982,5.77091 -1.31066,0.66865 -2.24794,0.66479 -3.59185,-0.0148 z"
       id="path875-9" />
    <path
       style="fill:none;stroke:#000000;stroke-width:0;stroke-miterlimit:4;stroke-dasharray:none;stroke-opacity:1"
       d="m 253.90651,131.76662 c -0.89698,-0.60448 -4.51876,-5.54305 -4.51371,-6.15478 0.006,-0.70006 1.30761,-3.05497 2.16008,-3.90744 0.49921,-0.49921 1.55369,-1.20342 2.34328,-1.56491 1.20478,-0.55157 1.72074,-0.63678 3.20886,-0.52995 2.2013,0.15802 3.63512,0.8624 5.06714,2.48925 1.16694,1.32571 2.23198,3.89427 1.68969,4.07503 -1.37745,0.45915 -2.79068,1.5632 -4.1599,3.24981 -2.44231,3.00847 -3.9209,3.60624 -5.79544,2.34299 z"
       id="path877-1" />
    <path
       style="fill:none;stroke:#000000;stroke-width:0;stroke-miterlimit:4;stroke-dasharray:none;stroke-opacity:1"
       d="m 208.15449,130.55501 c -2.53942,-0.63688 -4.64368,-1.81689 -6.48128,-3.63449 l -0.86863,-0.85917 V 103.90969 81.758035 h 40.22406 40.22406 l -4e-5,23.452895 -3e-5,23.4529 -5.27854,0.008 c -2.90319,0.004 -6.74537,0.10157 -8.53817,0.21571 l -3.25965,0.20753 -0.3016,-1.15115 c -0.35857,-1.3686 -1.35075,-2.95989 -2.49998,-4.00955 -1.67557,-1.53039 -4.97782,-2.22428 -7.3927,-1.5534 -2.42587,0.67394 -4.69355,2.96074 -5.34871,5.39382 l -0.26664,0.99022 -0.99572,-0.41604 c -0.54764,-0.22882 -2.42962,-0.64613 -4.18216,-0.92736 -4.08415,-0.65539 -5.0756,-1.19716 -8.01247,-4.37839 -2.80964,-3.04341 -4.48309,-4.00833 -6.59898,-3.80502 -1.87136,0.17981 -3.27193,1.23864 -5.05482,3.82143 -1.98722,2.87879 -4.60969,5.47351 -6.41447,6.34659 -3.01341,1.45776 -6.12777,1.85728 -8.95353,1.14858 z"
       id="path879-2" />
    <path
       style="fill:none;stroke:#000000;stroke-width:0;stroke-miterlimit:4;stroke-dasharray:none;stroke-opacity:1"
       d="m 208.15449,130.55501 c -2.53942,-0.63688 -4.64368,-1.81689 -6.48128,-3.63449 l -0.86863,-0.85917 V 103.90969 81.758035 h 40.22406 40.22406 l -4e-5,23.452895 -3e-5,23.4529 -5.27854,0.008 c -2.90319,0.004 -6.74537,0.10157 -8.53817,0.21571 l -3.25965,0.20753 -0.3016,-1.15115 c -0.35857,-1.3686 -1.35075,-2.95989 -2.49998,-4.00955 -1.67557,-1.53039 -4.97782,-2.22428 -7.3927,-1.5534 -2.42587,0.67394 -4.69355,2.96074 -5.34871,5.39382 l -0.26664,0.99022 -0.99572,-0.41604 c -0.54764,-0.22882 -2.42962,-0.64613 -4.18216,-0.92736 -4.08415,-0.65539 -5.0756,-1.19716 -8.01247,-4.37839 -2.80964,-3.04341 -4.48309,-4.00833 -6.59898,-3.80502 -1.87136,0.17981 -3.27193,1.23864 -5.05482,3.82143 -1.98722,2.87879 -4.60969,5.47351 -6.41447,6.34659 -3.01341,1.45776 -6.12777,1.85728 -8.95353,1.14858 z"
       id="path881-7" />
    <path
       style="fill:none;stroke:#000000;stroke-width:0;stroke-miterlimit:4;stroke-dasharray:none;stroke-opacity:1"
       d="m 208.15449,130.55501 c -2.53942,-0.63688 -4.64368,-1.81689 -6.48128,-3.63449 l -0.86863,-0.85917 V 103.90969 81.758035 h 40.22406 40.22406 l -4e-5,23.452895 -3e-5,23.4529 -5.27854,0.008 c -2.90319,0.004 -6.74537,0.10157 -8.53817,0.21571 l -3.25965,0.20753 -0.3016,-1.15115 c -0.35857,-1.3686 -1.35075,-2.95989 -2.49998,-4.00955 -1.67557,-1.53039 -4.97782,-2.22428 -7.3927,-1.5534 -2.42587,0.67394 -4.69355,2.96074 -5.34871,5.39382 l -0.26664,0.99022 -0.99572,-0.41604 c -0.54764,-0.22882 -2.42962,-0.64613 -4.18216,-0.92736 -4.08415,-0.65539 -5.0756,-1.19716 -8.01247,-4.37839 -2.80964,-3.04341 -4.48309,-4.00833 -6.59898,-3.80502 -1.87136,0.17981 -3.27193,1.23864 -5.05482,3.82143 -1.98722,2.87879 -4.60969,5.47351 -6.41447,6.34659 -3.01341,1.45776 -6.12777,1.85728 -8.95353,1.14858 z"
       id="path883-0" />
    <path
       style="fill:none;stroke:#000000;stroke-width:0;stroke-miterlimit:4;stroke-dasharray:none;stroke-opacity:1"
       d="m 207.78361,130.51319 c -1.88268,-0.50631 -4.30068,-1.809 -5.78817,-3.11834 l -1.19086,-1.04824 V 104.05232 81.758035 h 40.22406 40.22406 l -5e-5,23.452895 -6e-5,23.4529 -6.48123,0.0625 c -3.56467,0.0343 -7.41521,0.1605 -8.55674,0.28032 l -2.07552,0.21786 -0.29111,-1.08213 c -1.20687,-4.48627 -5.53663,-6.93196 -9.98348,-5.63923 -2.01748,0.5865 -4.45453,2.89596 -4.97201,4.71171 -0.45432,1.59413 -0.58728,1.69666 -1.55279,1.19737 -0.45815,-0.23691 -2.06556,-0.61415 -3.57203,-0.83831 -4.91199,-0.73087 -4.92443,-0.73726 -8.48533,-4.3623 -3.69264,-3.75916 -5.45132,-4.57834 -7.85686,-3.65966 -1.53082,0.58463 -2.69655,1.74861 -4.74169,4.73459 -1.73666,2.5356 -3.40424,4.07872 -5.62229,5.2027 -2.79735,1.41752 -6.35466,1.81013 -9.2779,1.02398 z"
       id="path885-9" />
    <path
       style="fill:none;stroke:#000000;stroke-width:0;stroke-miterlimit:4;stroke-dasharray:none;stroke-opacity:1"
       d="m 207.78361,130.51319 c -1.88268,-0.50631 -4.30068,-1.809 -5.78817,-3.11834 l -1.19086,-1.04824 V 104.05232 81.758035 h 40.22406 40.22406 l -5e-5,23.452895 -6e-5,23.4529 -6.48123,0.0625 c -3.56467,0.0343 -7.41521,0.1605 -8.55674,0.28032 l -2.07552,0.21786 -0.29111,-1.08213 c -1.20687,-4.48627 -5.53663,-6.93196 -9.98348,-5.63923 -2.01748,0.5865 -4.45453,2.89596 -4.97201,4.71171 -0.45432,1.59413 -0.58728,1.69666 -1.55279,1.19737 -0.45815,-0.23691 -2.06556,-0.61415 -3.57203,-0.83831 -4.91199,-0.73087 -4.92443,-0.73726 -8.48533,-4.3623 -3.69264,-3.75916 -5.45132,-4.57834 -7.85686,-3.65966 -1.53082,0.58463 -2.69655,1.74861 -4.74169,4.73459 -1.73666,2.5356 -3.40424,4.07872 -5.62229,5.2027 -2.79735,1.41752 -6.35466,1.81013 -9.2779,1.02398 z"
       id="path887-3" />
    <path
       style="fill:none;stroke:#000000;stroke-width:0;stroke-miterlimit:4;stroke-dasharray:none;stroke-opacity:1"
       d="m 207.78361,130.51319 c -1.88268,-0.50631 -4.30068,-1.809 -5.78817,-3.11834 l -1.19086,-1.04824 V 104.05232 81.758035 h 40.22406 40.22406 l -5e-5,23.452895 -6e-5,23.4529 -6.48123,0.0625 c -3.56467,0.0343 -7.41521,0.1605 -8.55674,0.28032 l -2.07552,0.21786 -0.29111,-1.08213 c -1.20687,-4.48627 -5.53663,-6.93196 -9.98348,-5.63923 -2.01748,0.5865 -4.45453,2.89596 -4.97201,4.71171 -0.45432,1.59413 -0.58728,1.69666 -1.55279,1.19737 -0.45815,-0.23691 -2.06556,-0.61415 -3.57203,-0.83831 -4.91199,-0.73087 -4.92443,-0.73726 -8.48533,-4.3623 -3.69264,-3.75916 -5.45132,-4.57834 -7.85686,-3.65966 -1.53082,0.58463 -2.69655,1.74861 -4.74169,4.73459 -1.73666,2.5356 -3.40424,4.07872 -5.62229,5.2027 -2.79735,1.41752 -6.35466,1.81013 -9.2779,1.02398 z"
       id="path889-6" />
    <path
       style="fill:none;stroke:#000000;stroke-width:0;stroke-miterlimit:4;stroke-dasharray:none;stroke-opacity:1"
       d="m 207.78361,130.51319 c -1.88268,-0.50631 -4.30068,-1.809 -5.78817,-3.11834 l -1.19086,-1.04824 V 104.05232 81.758035 h 40.22406 40.22406 l -5e-5,23.452895 -6e-5,23.4529 -6.48123,0.0625 c -3.56467,0.0343 -7.41521,0.1605 -8.55674,0.28032 l -2.07552,0.21786 -0.29111,-1.08213 c -1.20687,-4.48627 -5.53663,-6.93196 -9.98348,-5.63923 -2.01748,0.5865 -4.45453,2.89596 -4.97201,4.71171 -0.45432,1.59413 -0.58728,1.69666 -1.55279,1.19737 -0.45815,-0.23691 -2.06556,-0.61415 -3.57203,-0.83831 -4.91199,-0.73087 -4.92443,-0.73726 -8.48533,-4.3623 -3.69264,-3.75916 -5.45132,-4.57834 -7.85686,-3.65966 -1.53082,0.58463 -2.69655,1.74861 -4.74169,4.73459 -1.73666,2.5356 -3.40424,4.07872 -5.62229,5.2027 -2.79735,1.41752 -6.35466,1.81013 -9.2779,1.02398 z"
       id="path891-0" />
    <path
       style="fill:none;stroke:#000000;stroke-width:0;stroke-miterlimit:4;stroke-dasharray:none;stroke-opacity:1"
       d="m 227.74669,130.32206 c -2.02496,-1.0505 -2.81476,-3.9219 -1.61843,-5.88395 0.73553,-1.20631 2.47198,-2.0417 3.90756,-1.87989 3.76713,0.42461 5.00194,5.20519 1.93495,7.49115 -1.00647,0.75016 -3.04947,0.88205 -4.22408,0.27269 z"
       id="path893-6" />
    <path
       style="fill:none;stroke:#000000;stroke-width:0;stroke-miterlimit:4;stroke-dasharray:none;stroke-opacity:1"
       d="m 209.51229,130.87186 c -1.62582,-0.21226 -2.61379,-0.50088 -4.13658,-1.20845 -1.44339,-0.67067 -3.38867,-2.06019 -4.1487,-2.96345 l -0.48151,-0.57224 v -22.1916 -22.191595 h 40.34896 40.34895 l -8e-5,23.481765 -9e-5,23.48177 -5.90579,0.0196 c -5.28167,0.0176 -10.38572,0.2754 -11.36287,0.57402 -0.23713,0.0725 -0.30999,0.0365 -0.22021,-0.1088 0.23977,-0.38796 -0.62074,-2.73947 -1.40146,-3.82974 -0.90326,-1.26139 -2.63072,-2.48098 -4.13251,-2.91756 -1.64328,-0.47772 -3.97474,-0.28149 -5.54187,0.46643 -2.04954,0.97816 -3.92712,3.32645 -4.24397,5.30794 -0.1397,0.87364 -0.12905,0.8659 -0.69593,0.50535 -0.79342,-0.50462 -2.29334,-0.88869 -4.87089,-1.24723 -2.60686,-0.36261 -3.76856,-0.69565 -4.8081,-1.37838 -0.31184,-0.20481 -1.75759,-1.58347 -3.2128,-3.06371 -3.08998,-3.14312 -4.0755,-3.75627 -6.02747,-3.75004 -2.20521,0.007 -3.80374,1.27478 -6.29798,4.99471 -0.78466,1.17025 -1.86052,2.47535 -2.59649,3.14973 -2.78445,2.55145 -6.98818,3.91463 -10.61261,3.44145 z"
       id="path895-2" />
    <path
       style="fill:none;stroke:#000000;stroke-width:0;stroke-miterlimit:4;stroke-dasharray:none;stroke-opacity:1"
       d="m 209.51229,130.87186 c -1.62582,-0.21226 -2.61379,-0.50088 -4.13658,-1.20845 -1.44339,-0.67067 -3.38867,-2.06019 -4.1487,-2.96345 l -0.48151,-0.57224 v -22.1916 -22.191595 h 40.34896 40.34895 l -8e-5,23.481765 -9e-5,23.48177 -5.90579,0.0196 c -5.28167,0.0176 -10.38572,0.2754 -11.36287,0.57402 -0.23713,0.0725 -0.30999,0.0365 -0.22021,-0.1088 0.23977,-0.38796 -0.62074,-2.73947 -1.40146,-3.82974 -0.90326,-1.26139 -2.63072,-2.48098 -4.13251,-2.91756 -1.64328,-0.47772 -3.97474,-0.28149 -5.54187,0.46643 -2.04954,0.97816 -3.92712,3.32645 -4.24397,5.30794 -0.1397,0.87364 -0.12905,0.8659 -0.69593,0.50535 -0.79342,-0.50462 -2.29334,-0.88869 -4.87089,-1.24723 -2.60686,-0.36261 -3.76856,-0.69565 -4.8081,-1.37838 -0.31184,-0.20481 -1.75759,-1.58347 -3.2128,-3.06371 -3.08998,-3.14312 -4.0755,-3.75627 -6.02747,-3.75004 -2.20521,0.007 -3.80374,1.27478 -6.29798,4.99471 -0.78466,1.17025 -1.86052,2.47535 -2.59649,3.14973 -2.78445,2.55145 -6.98818,3.91463 -10.61261,3.44145 z"
       id="path897-6" />
    <path
       style="fill:none;stroke:#000000;stroke-width:0;stroke-miterlimit:4;stroke-dasharray:none;stroke-opacity:1"
       d="m 254.64669,132.32271 c -1.00088,-0.31804 -1.82482,-1.15558 -3.22036,-3.27351 -0.76787,-1.16536 -1.56567,-2.27043 -1.77289,-2.45573 -0.32793,-0.29322 -0.35528,-0.45245 -0.211,-1.22842 0.39519,-2.1254 2.15067,-4.30202 4.2711,-5.29572 0.95359,-0.44689 1.31941,-0.5095 2.97706,-0.5095 1.73239,0 1.9958,0.0502 3.16078,0.60206 0.72975,0.34569 1.62973,0.97125 2.1136,1.46911 0.86456,0.88957 2.00167,2.90432 2.00167,3.54659 0,0.19812 0.0814,0.51234 0.18091,0.69827 0.15268,0.28528 0.0715,0.37084 -0.51971,0.548 -1.31514,0.39409 -2.4437,1.30009 -3.90343,3.13369 -1.95624,2.45725 -3.46354,3.27807 -5.07773,2.76516 z"
       id="path899-1" />
    <path
       style="fill:none;stroke:#000000;stroke-width:0;stroke-miterlimit:4;stroke-dasharray:none;stroke-opacity:1"
       d="m 201.2226,139.40358 c 0,-8.47139 0.0471,-15.40252 0.10458,-15.40252 0.0575,0 0.67409,0.45548 1.37016,1.01219 1.57883,1.26272 2.60024,1.84458 4.29423,2.44624 4.30418,1.52875 8.85214,0.87156 12.62833,-1.82481 1.5659,-1.11813 2.63387,-2.29705 4.2215,-4.66006 1.42941,-2.12753 2.88427,-3.63418 3.93196,-4.07193 1.03743,-0.43347 2.67283,-0.34424 3.87632,0.21151 0.81051,0.37427 1.64296,1.09982 3.77976,3.29439 3.42775,3.52041 3.88123,3.76671 8.02063,4.35636 4.65433,0.66299 5.38725,1.09412 7.61221,4.4778 1.87487,2.85126 3.22614,3.8226 4.98884,3.58617 1.2636,-0.16948 2.34586,-0.97642 3.85939,-2.87758 2.10639,-2.64586 2.84072,-3.09445 5.70688,-3.48625 2.03654,-0.27839 10.56552,-0.5469 13.70454,-0.43144 l 2.59858,0.0956 v 14.33844 14.33844 H 241.57156 201.2226 Z m 29.88687,-8.44031 c 1.73605,-0.52013 3.03485,-2.35242 3.03485,-4.28143 0,-1.88877 -0.91239,-3.34616 -2.58141,-4.12336 -1.6596,-0.77281 -3.4473,-0.54493 -4.79854,0.61168 -1.15873,0.99183 -1.62079,1.98299 -1.62079,3.47673 0,1.40485 0.41182,2.36528 1.43411,3.34456 1.17268,1.12333 2.83573,1.47997 4.53178,0.97182 z"
       id="path901-8" />
    <path
       style="fill:none;stroke:#000000;stroke-width:0;stroke-miterlimit:4;stroke-dasharray:none;stroke-opacity:1"
       d="m 227.96441,130.45204 c -2.54777,-1.16034 -3.27906,-4.46738 -1.43917,-6.50819 1.57486,-1.74683 3.99773,-1.93447 5.79967,-0.44915 1.83061,1.50894 1.90162,4.54627 0.14528,6.21322 -1.15267,1.094 -3.04966,1.40728 -4.50578,0.74412 z"
       id="path903-7" />
    <path
       style="fill:#000000;fill-opacity:0.151391;stroke:#000000;stroke-width:0;stroke-miterlimit:4;stroke-dasharray:none;stroke-opacity:1"
       d="m 200.55976,139.309 c 0,-8.47139 0.0471,-15.40252 0.10458,-15.40252 0.0575,0 0.67409,0.45548 1.37016,1.01219 1.57883,1.26272 2.60024,1.84458 4.29423,2.44624 4.30418,1.52875 8.85214,0.87156 12.62833,-1.82481 1.5659,-1.11813 2.63387,-2.29705 4.2215,-4.66006 1.42941,-2.12753 2.88427,-3.63418 3.93196,-4.07193 1.03743,-0.43347 2.67283,-0.34424 3.87632,0.21151 0.81051,0.37427 1.64296,1.09982 3.77976,3.29439 3.42775,3.52041 3.88123,3.76671 8.02063,4.35636 4.65433,0.66299 5.38725,1.09412 7.61221,4.4778 1.87487,2.85126 3.22614,3.8226 4.98884,3.58617 1.2636,-0.16948 2.34586,-0.97642 3.85939,-2.87758 2.10639,-2.64586 2.84072,-3.09445 5.70688,-3.48625 2.03654,-0.27839 10.56552,-0.5469 13.70454,-0.43144 l 2.59858,0.0956 v 14.33844 14.33844 h -40.34895 -40.34896 z m 29.88687,-8.44031 c 1.73605,-0.52013 3.03485,-2.35242 3.03485,-4.28143 0,-1.88877 -0.91239,-3.34616 -2.58141,-4.12336 -1.6596,-0.77281 -3.4473,-0.54493 -4.79854,0.61168 -1.15873,0.99183 -1.62079,1.98299 -1.62079,3.47673 0,1.40485 0.41182,2.36528 1.43411,3.34456 1.17268,1.12333 2.83573,1.47997 4.53178,0.97182 z"
       id="path905-9" />
    <path
       style="fill:#000000;fill-opacity:0.151391;stroke:#000000;stroke-width:0;stroke-miterlimit:4;stroke-dasharray:none;stroke-opacity:1"
       d="m 208.98312,130.87186 c -1.62582,-0.21226 -2.61379,-0.50088 -4.13658,-1.20845 -1.44339,-0.67067 -3.38867,-2.06019 -4.1487,-2.96345 l -0.48151,-0.57224 v -22.1916 -22.191595 h 40.34896 40.34895 l -8e-5,23.481765 -9e-5,23.48177 -5.90579,0.0196 c -5.28167,0.0176 -10.38572,0.2754 -11.36287,0.57402 -0.23713,0.0725 -0.30999,0.0365 -0.22021,-0.1088 0.23977,-0.38796 -0.62074,-2.73947 -1.40146,-3.82974 -0.90326,-1.26139 -2.63072,-2.48098 -4.13251,-2.91756 -1.64328,-0.47772 -3.97474,-0.28149 -5.54187,0.46643 -2.04954,0.97816 -3.92712,3.32645 -4.24397,5.30794 -0.1397,0.87364 -0.12905,0.8659 -0.69593,0.50535 -0.79342,-0.50462 -2.29334,-0.88869 -4.87089,-1.24723 -2.60686,-0.36261 -3.76856,-0.69565 -4.8081,-1.37838 -0.31184,-0.20481 -1.75759,-1.58347 -3.2128,-3.06371 -3.08998,-3.14312 -4.0755,-3.75627 -6.02747,-3.75004 -2.20521,0.007 -3.80374,1.27478 -6.29798,4.99471 -0.78466,1.17025 -1.86052,2.47535 -2.59649,3.14973 -2.78445,2.55145 -6.98818,3.91463 -10.61261,3.44145 z"
       id="path907-2" />
    <text
       xml:space="preserve"
       style="font-style:normal;font-weight:normal;font-size:10.5833px;line-height:1.25;font-family:sans-serif;fill:#000000;fill-opacity:1;stroke:none;stroke-width:0.264583"
       x="98.81353"
       y="132.20184"
       id="text1033"><tspan
         sodipodi:role="line"
         id="tspan1031"
         x="98.81353"
         y="132.20184"
         style="stroke-width:0.264583">$K_1$</tspan></text>
    <text
       xml:space="preserve"
       style="font-style:normal;font-weight:normal;font-size:10.5833px;line-height:1.25;font-family:sans-serif;fill:#000000;fill-opacity:1;stroke:none;stroke-width:0.264583"
       x="125.00737"
       y="131.25763"
       id="text1037"><tspan
         sodipodi:role="line"
         id="tspan1035"
         x="125.00737"
         y="131.25763"
         style="stroke-width:0.264583">$K_2$</tspan><tspan
         sodipodi:role="line"
         x="125.00737"
         y="144.48676"
         style="stroke-width:0.264583"
         id="tspan1039" /></text>
    <text
       xml:space="preserve"
       style="font-style:normal;font-weight:normal;font-size:10.5833px;line-height:1.25;font-family:sans-serif;fill:#000000;fill-opacity:1;stroke:none;stroke-width:0.264583"
       x="103.40265"
       y="104.51965"
       id="text1043"><tspan
         sodipodi:role="line"
         id="tspan1041"
         x="103.40265"
         y="104.51965"
         style="stroke-width:0.264583">$U$</tspan><tspan
         sodipodi:role="line"
         x="103.40265"
         y="117.74878"
         style="stroke-width:0.264583"
         id="tspan1045" /></text>
    <text
       xml:space="preserve"
       style="font-style:normal;font-weight:normal;font-size:10.5833px;line-height:1.25;font-family:sans-serif;fill:#000000;fill-opacity:1;stroke:none;stroke-width:0.264583"
       x="99.765587"
       y="147.01918"
       id="text1049"><tspan
         sodipodi:role="line"
         id="tspan1047"
         x="99.765587"
         y="147.01918"
         style="stroke-width:0.264583">$V$</tspan></text>
    <text
       xml:space="preserve"
       style="font-style:normal;font-weight:normal;font-size:10.5833px;line-height:1.25;font-family:sans-serif;fill:#000000;fill-opacity:1;stroke:none;stroke-width:0.264583"
       x="143.30415"
       y="106.82904"
       id="text1053"><tspan
         sodipodi:role="line"
         id="tspan1051"
         x="143.30415"
         y="106.82904"
         style="stroke-width:0.264583" /></text>
    <path
       style="fill:none;stroke:#000000;stroke-width:0.665;stroke-linecap:butt;stroke-linejoin:miter;stroke-miterlimit:4;stroke-dasharray:none;stroke-opacity:1;marker-end:url(#Arrow1Mend)"
       d="m 162.06497,122.59492 h 26.22527"
       id="path1091" />
    <text
       xml:space="preserve"
       style="font-style:normal;font-weight:normal;font-size:10.5833px;line-height:1.25;font-family:sans-serif;fill:#000000;fill-opacity:1;stroke:none;stroke-width:0.264583"
       x="203.7061"
       y="136.6494"
       id="text1371"><tspan
         sodipodi:role="line"
         id="tspan1369"
         x="203.7061"
         y="136.6494"
         style="stroke-width:0.264583">$U\cap V$</tspan></text>
    <text
       xml:space="preserve"
       style="font-style:normal;font-weight:normal;font-size:10.5833px;line-height:1.25;font-family:sans-serif;fill:#000000;fill-opacity:1;stroke:none;stroke-width:0.264583"
       x="205.64207"
       y="105.45229"
       id="text1375"><tspan
         sodipodi:role="line"
         id="tspan1373"
         x="205.64207"
         y="105.45229"
         style="stroke-width:0.264583" /></text>
    <text
       xml:space="preserve"
       style="font-style:normal;font-weight:normal;font-size:10.5833px;line-height:1.25;font-family:sans-serif;fill:#000000;fill-opacity:1;stroke:none;stroke-width:0.264583"
       x="206.80357"
       y="101.12006"
       id="text1379"><tspan
         sodipodi:role="line"
         id="tspan1377"
         x="206.80357"
         y="101.12006"
         style="stroke-width:0.264583">$U\cup V=\R^3 \setminus (K_1\amalg K_2)$</tspan></text>
  </g>
</svg>
